<?xml version="1.0" encoding="UTF-8"?>
<svg version="1.1" xmlns="http://www.w3.org/2000/svg" width="311" height="162">
<path d="M0 0 C102.63 0 205.26 0 311 0 C311 53.46 311 106.92 311 162 C208.37 162 105.74 162 0 162 C0 108.54 0 55.08 0 0 Z " fill="#FEFEFE" transform="translate(0,0)"/>
<path d="M0 0 C4.7755099 1.59183663 5.88328577 4.5179708 8.2734375 8.77734375 C9.375 11.125 9.375 11.125 9.375 13.125 C10.47199219 12.82464844 11.56898438 12.52429687 12.69921875 12.21484375 C14.15349642 11.83016385 15.607932 11.4460806 17.0625 11.0625 C17.78373047 10.86333984 18.50496094 10.66417969 19.24804688 10.45898438 C23.29886473 9.40466192 26.2573458 8.83366466 30.375 10.125 C31.02148438 11.93383789 31.02148438 11.93383789 31.375 14.125 C29.14526191 17.0348082 26.77903603 19.62052481 24.24609375 22.25976562 C21.17617967 25.49868209 21.17617967 25.49868209 20.3671875 29.71875 C21.82366759 33.19623735 23.57921942 36.43311714 25.4140625 39.72265625 C26.50228369 42.44320922 26.50890644 43.46203791 25.375 46.125 C23.375 48.125 23.375 48.125 21.421875 48.171875 C16.85514361 47.5816172 12.70308816 46.78964929 8.375 45.125 C5.735 47.765 3.095 50.405 0.375 53.125 C1.76917791 55.91335582 2.96271406 58.0854188 4.7578125 60.54296875 C5.20253906 61.15720703 5.64726562 61.77144531 6.10546875 62.40429688 C6.56566406 63.03400391 7.02585938 63.66371094 7.5 64.3125 C12.375 70.99380165 12.375 70.99380165 12.375 72.125 C9.26173027 72.58793974 6.47445924 72.74167997 3.375 72.125 C0.85576924 70.01648951 -0.59147119 67.46864684 -2.1875 64.625 C-2.62384766 63.90957031 -3.06019531 63.19414063 -3.50976562 62.45703125 C-4.5774479 60.69711542 -5.60532402 58.91315829 -6.625 57.125 C-7.285 61.745 -7.945 66.365 -8.625 71.125 C-10.935 71.125 -13.245 71.125 -15.625 71.125 C-14.33288253 45.2486476 -14.33288253 45.2486476 -11.625 37.125 C-12.35074219 37.01285156 -13.07648438 36.90070312 -13.82421875 36.78515625 C-16.75063993 36.09538613 -18.84787809 35.06989186 -21.4375 33.5625 C-22.22769531 33.10746094 -23.01789063 32.65242188 -23.83203125 32.18359375 C-24.42371094 31.83425781 -25.01539063 31.48492187 -25.625 31.125 C-25.625 29.145 -25.625 27.165 -25.625 25.125 C-19.72122349 22.2498748 -14.09212188 20.28694152 -7.625 19.125 C-7.51542969 18.08859375 -7.40585938 17.0521875 -7.29296875 15.984375 C-7.13346361 14.61450736 -6.97327116 13.24471963 -6.8125 11.875 C-6.74224609 11.19308594 -6.67199219 10.51117188 -6.59960938 9.80859375 C-6.03012317 5.11602745 -5.39641117 0.25697196 0 0 Z " fill="#FAF6F4" transform="translate(207.625,22.875)"/>
<path d="M0 0 C4.7755099 1.59183663 5.88328577 4.5179708 8.2734375 8.77734375 C9.375 11.125 9.375 11.125 9.375 13.125 C10.47199219 12.82464844 11.56898438 12.52429687 12.69921875 12.21484375 C14.15349642 11.83016385 15.607932 11.4460806 17.0625 11.0625 C17.78373047 10.86333984 18.50496094 10.66417969 19.24804688 10.45898438 C23.29886473 9.40466192 26.2573458 8.83366466 30.375 10.125 C31.02148438 11.93383789 31.02148438 11.93383789 31.375 14.125 C29.14526191 17.0348082 26.77903603 19.62052481 24.24609375 22.25976562 C21.17617967 25.49868209 21.17617967 25.49868209 20.3671875 29.71875 C21.82366759 33.19623735 23.57921942 36.43311714 25.4140625 39.72265625 C26.50228369 42.44320922 26.50890644 43.46203791 25.375 46.125 C23.375 48.125 23.375 48.125 21.421875 48.20703125 C16.49331554 47.62867988 12.72645529 46.69124286 8.375 44.125 C8.375 42.145 8.375 40.165 8.375 38.125 C11.345 38.785 14.315 39.445 17.375 40.125 C17.00246094 39.44953125 16.62992188 38.7740625 16.24609375 38.078125 C15.77300781 37.18609375 15.29992187 36.2940625 14.8125 35.375 C14.33683594 34.49328125 13.86117187 33.6115625 13.37109375 32.703125 C12.375 30.125 12.375 30.125 12.5 28.05859375 C13.61679766 25.59067034 15.0964929 23.91983694 16.9375 21.9375 C19.27508029 19.8313081 19.27508029 19.8313081 20.375 17.125 C19.61574219 17.3415625 18.85648438 17.558125 18.07421875 17.78125 C17.08035156 18.0596875 16.08648437 18.338125 15.0625 18.625 C14.07636719 18.9034375 13.09023437 19.181875 12.07421875 19.46875 C9.375 20.125 9.375 20.125 6.375 20.125 C4.76953125 17.9375 4.76953125 17.9375 3.1875 15.125 C2.65769531 14.196875 2.12789062 13.26875 1.58203125 12.3125 C1.18371094 11.590625 0.78539062 10.86875 0.375 10.125 C0.30925781 11.00542969 0.24351562 11.88585938 0.17578125 12.79296875 C-0.35519171 16.62022182 -0.96342811 19.62383066 -2.625 23.125 C-6.73140691 25.74853775 -10.89946822 27.02619589 -15.625 28.125 C-11.17 30.105 -11.17 30.105 -6.625 32.125 C-9.49791024 34.99791024 -10.76510379 36.21214863 -14.625 37.125 C-17.51953125 36.0078125 -17.51953125 36.0078125 -20.4375 34.25 C-21.90123047 33.38761719 -21.90123047 33.38761719 -23.39453125 32.5078125 C-24.13058594 32.05148438 -24.86664063 31.59515625 -25.625 31.125 C-25.625 29.145 -25.625 27.165 -25.625 25.125 C-19.72122349 22.2498748 -14.09212188 20.28694152 -7.625 19.125 C-7.51542969 18.08859375 -7.40585938 17.0521875 -7.29296875 15.984375 C-7.13346361 14.61450736 -6.97327116 13.24471963 -6.8125 11.875 C-6.74224609 11.19308594 -6.67199219 10.51117188 -6.59960938 9.80859375 C-6.03012317 5.11602745 -5.39641117 0.25697196 0 0 Z " fill="#E25B1C" transform="translate(207.625,22.875)"/>
<path d="M0 0 C3.9561539 2.09004357 6.62403457 4.22439977 9 8 C9.89414126 12.80903002 9.62568087 17.5213303 7.3125 21.875 C4.33606419 25.89721055 1.7707186 28.40976047 -3 30 C-4.68545724 30.09287771 -6.374493 30.12997204 -8.0625 30.125 C-9.37927734 30.12886719 -9.37927734 30.12886719 -10.72265625 30.1328125 C-13 30 -13 30 -15 29 C-15.66 31.97 -16.32 34.94 -17 38 C-19.31 38 -21.62 38 -24 38 C-23.63794463 33.99619965 -23.22928319 29.99844406 -22.8125 26 C-22.71130859 24.87464844 -22.61011719 23.74929687 -22.50585938 22.58984375 C-21.63611462 14.55058138 -19.96238683 8.79629876 -14.04296875 3.125 C-9.08841045 0.12097307 -5.79700226 -0.84150033 0 0 Z " fill="#3F3D41" transform="translate(132,65)"/>
<path d="M0 0 C3.0625 2 3.0625 2 5 4 C4.8125 5.8125 4.8125 5.8125 4 8 C1.4375 9.75 1.4375 9.75 -1 11 C-1.66 10.01 -2.32 9.02 -3 8 C-5.58380177 7.74969023 -5.58380177 7.74969023 -8 8 C-8 12.54251605 -7.58144063 12.93108636 -4.625 16.0625 C-0.40195327 20.58967561 1.56930613 23.39405875 1.45703125 29.640625 C0.66817722 33.71299964 -1.84542266 36.42107546 -5 39 C-9.34659201 40.448864 -13.46243577 40.64925402 -18 40 C-21.1875 37.75 -21.1875 37.75 -23 35 C-23.1875 32.8125 -23.1875 32.8125 -22 31 C-18.9375 29.75 -18.9375 29.75 -16 29 C-15.01 30.32 -14.02 31.64 -13 33 C-10.525 32.505 -10.525 32.505 -8 32 C-7.09917246 29.76290728 -7.09917246 29.76290728 -7 27 C-8.81112005 24.27993516 -8.81112005 24.27993516 -11.375 21.8125 C-16.83933939 16.17052728 -16.83933939 16.17052728 -17.4375 11.8125 C-16.86024036 6.78209455 -14.65900216 4.35566519 -11 1 C-7.54765812 -0.72617094 -3.77455234 -0.50110436 0 0 Z " fill="#3C3A3E" transform="translate(107,55)"/>
<path d="M0 0 C3.24394395 2.09054166 4.93384184 3.41646409 6.8125 6.8125 C7.69857016 13.71386337 6.54504964 20.93176588 5.8125 27.8125 C3.5025 27.8125 1.1925 27.8125 -1.1875 27.8125 C-1.08050781 26.63171875 -0.97351563 25.4509375 -0.86328125 24.234375 C-0.74132991 22.67715026 -0.62028347 21.11985446 -0.5 19.5625 C-0.42716797 18.78519531 -0.35433594 18.00789063 -0.27929688 17.20703125 C0.05728153 12.60032331 0.05728153 12.60032331 -1.421875 8.296875 C-3.8696369 6.23902208 -6.13190924 6.25773397 -9.25 6.4296875 C-11.39261464 6.72455475 -11.39261464 6.72455475 -13.625 8.4375 C-15.52068053 11.31893441 -15.97306233 13.38149734 -16.1875 16.8125 C-15.88808965 18.15385839 -15.56092483 19.48983497 -15.1875 20.8125 C-13.77316794 21.0361337 -12.35582382 21.24076476 -10.9375 21.4375 C-10.14859375 21.55351563 -9.3596875 21.66953125 -8.546875 21.7890625 C-5.86597541 21.81569395 -4.46055911 21.17842084 -2.1875 19.8125 C-2.7734375 25.96484375 -2.7734375 25.96484375 -3.1875 27.8125 C-6.94686376 29.69218188 -11.10448301 29.47065796 -15.1875 28.8125 C-19.16879682 26.55785879 -21.73472828 24.17081515 -23.1875 19.8125 C-23.9931526 14.64204596 -23.68291137 10.84288477 -20.625 6.5 C-14.97486912 -0.14487223 -8.62873514 -3.21462682 0 0 Z " fill="#3C3A3F" transform="translate(167.1875,66.1875)"/>
<path d="M0 0 C0.66 0 1.32 0 2 0 C2 4.62 2 9.24 2 14 C4.97 10.7 7.94 7.4 11 4 C11.66 4.33 12.32 4.66 13 5 C13.4375 7.5625 13.4375 7.5625 13 11 C10.91317274 13.6203019 8.53313752 15.8158151 6 18 C9.12475426 23.97779077 13.07088115 29.19214549 17.171875 34.5234375 C19 37 19 37 19 38 C15.88673027 38.46293974 13.09945924 38.61667997 10 38 C7.48076924 35.89148951 6.03352881 33.34364684 4.4375 30.5 C4.00115234 29.78457031 3.56480469 29.06914063 3.11523438 28.33203125 C2.0475521 26.57211542 1.01967598 24.78815829 0 23 C-0.66 27.62 -1.32 32.24 -2 37 C-4.31 37 -6.62 37 -9 37 C-8.59675283 28.92444486 -8.09076388 20.85527905 -7.25 12.8125 C-7.13140625 11.62269531 -7.0128125 10.43289062 -6.890625 9.20703125 C-5.79712847 5.26948452 -4.06060015 3.63230862 -1 1 C-0.67 0.67 -0.34 0.34 0 0 Z " fill="#3E3C40" transform="translate(201,57)"/>
<path d="M0 0 C2.5 2.0625 2.5 2.0625 4 5 C4.37419807 9.19101842 3.98895111 12.92057669 3 17 C2.67 16.01 2.34 15.02 2 14 C1.29875 14.495 0.5975 14.99 -0.125 15.5 C-3.47321887 17.2468968 -5.2758163 17.55466566 -9 17 C-11.94427735 14.93104835 -12.84332955 13.49090073 -13.9375 10.0625 C-14.0128328 6.37119268 -13.24574926 4.8873919 -11 2 C-7.33000925 -0.4466605 -4.26464882 -0.8237551 0 0 Z " fill="#F6F6F6" transform="translate(164,72)"/>
<path d="M0 0 C2.5 1.625 2.5 1.625 4 4 C4.60417093 7.08798473 4.64425395 8.97537471 2.94140625 11.68359375 C0.18187387 15.09820801 -1.49575832 16.83649547 -5.875 17.3125 C-9 17 -9 17 -11.375 15.5 C-13.24304391 12.62608629 -13.63978609 10.39630832 -13.44140625 6.97265625 C-11.82110298 -0.26852208 -6.18143992 -0.88306285 0 0 Z " fill="#F9F9F9" transform="translate(131,72)"/>
<path d="M0 0 C0 1.65 0 3.3 0 5 C-3.465 6.485 -3.465 6.485 -7 8 C-7.13277344 9.27617188 -7.26554688 10.55234375 -7.40234375 11.8671875 C-7.58052665 13.53647996 -7.75892314 15.20574964 -7.9375 16.875 C-8.02451172 17.71675781 -8.11152344 18.55851562 -8.20117188 19.42578125 C-8.28818359 20.23144531 -8.37519531 21.03710938 -8.46484375 21.8671875 C-8.543396 22.61081543 -8.62194824 23.35444336 -8.70288086 24.12060547 C-9 26 -9 26 -10 28 C-11.98 28 -13.96 28 -16 28 C-16.61729352 9.78984102 -16.61729352 9.78984102 -12.046875 3.171875 C-8.27718434 -0.82802578 -5.2488907 -0.08465953 0 0 Z " fill="#3D3B3F" transform="translate(192,66)"/>
<path d="M0 0 C0.99 0.33 1.98 0.66 3 1 C3 2.98 3 4.96 3 7 C1.02 7 -0.96 7 -3 7 C-1.125 1.125 -1.125 1.125 0 0 Z " fill="#49474B" transform="translate(122,52)"/>
<path d="M0 0 C0.66 0 1.32 0 2 0 C2.33 2.31 2.66 4.62 3 7 C1.02 7 -0.96 7 -3 7 C-1.125 1.125 -1.125 1.125 0 0 Z " fill="#423F44" transform="translate(142,52)"/>
<path d="M0 0 C1.65 0.33 3.3 0.66 5 1 C4.34 2.32 3.68 3.64 3 5 C2.01 5 1.02 5 0 5 C-0.33 5.66 -0.66 6.32 -1 7 C-0.67 4.69 -0.34 2.38 0 0 Z " fill="#514E53" transform="translate(131,52)"/>
<path d="M0 0 C2.0625 0.4375 2.0625 0.4375 4 1 C3.01 1 2.02 1 1 1 C1 1.66 1 2.32 1 3 C1.66 3.33 2.32 3.66 3 4 C2.34 4 1.68 4 1 4 C1 4.66 1 5.32 1 6 C1.66 6.33 2.32 6.66 3 7 C1.68 7 0.36 7 -1 7 C-1.04254356 5.00045254 -1.04080783 2.99958364 -1 1 C-0.67 0.67 -0.34 0.34 0 0 Z " fill="#363438" transform="translate(172,52)"/>
</svg>
