<?xml version="1.0" encoding="UTF-8"?>
<svg version="1.1" xmlns="http://www.w3.org/2000/svg" width="300" height="168">
<path d="M0 0 C99 0 198 0 300 0 C300 55.44 300 110.88 300 168 C201 168 102 168 0 168 C0 112.56 0 57.12 0 0 Z " fill="#F58D11" transform="translate(0,0)"/>
<path d="M0 0 C99 0 198 0 300 0 C300 36.63 300 73.26 300 111 C297.69727542 108.69727542 296.06940204 106.75188947 294.25 104.125 C287.44222807 95.05904031 277.92652332 92.00119475 267 90 C266.85304688 88.94941406 266.70609375 87.89882812 266.5546875 86.81640625 C264.74827361 75.07261713 261.54516477 67.27416702 252.15234375 59.50390625 C245.86641673 55.11174308 239.21249669 52.85993057 231.578125 52.90234375 C230.55332031 52.90556641 229.52851563 52.90878906 228.47265625 52.91210938 C226.87744141 52.92467773 226.87744141 52.92467773 225.25 52.9375 C224.17105469 52.94201172 223.09210938 52.94652344 221.98046875 52.95117188 C219.32025617 52.96294273 216.66015635 52.97938601 214 53 C213.85304687 52.11699219 213.70609375 51.23398437 213.5546875 50.32421875 C210.54348838 34.21257286 202.66000768 22.32096723 189.453125 12.53125 C173.9498928 2.85407321 153.4483053 1.16817295 135.73046875 4.6875 C132.65466914 5.58011415 129.88810548 6.6220708 127 8 C126.03449219 8.44730469 125.06898437 8.89460937 124.07421875 9.35546875 C110.83135813 16.03961897 103.35728698 25.86310305 97 39 C96.11852295 38.97905273 95.2370459 38.95810547 94.32885742 38.93652344 C91.0056681 38.86766711 87.68325484 38.81787538 84.35961914 38.78027344 C82.93111076 38.76036391 81.50268162 38.73322571 80.07446289 38.69824219 C65.10976404 38.34131496 53.97778728 41.67834334 42.80859375 52.03125 C35.64834434 59.53116968 30.78508234 68.7763466 29 79 C29.07605469 79.87527344 29.15210937 80.75054687 29.23046875 81.65234375 C29.3986006 84.96499568 29.35649079 86.94789573 28 90 C24.41173562 92.77786002 20.10959854 94.37401819 15.9765625 96.171875 C8.02633597 99.65539251 4.39764457 105.25337037 1 113 C0.67 113 0.34 113 0 113 C0 75.71 0 38.42 0 0 Z " fill="#FEFEFD" transform="translate(0,0)"/>
<path d="M0 0 C0 0.33 0 0.66 0 1 C-0.67804688 1.07476562 -1.35609375 1.14953125 -2.0546875 1.2265625 C-13.94446767 2.90628214 -22.97700395 9.18411155 -31 18 C-37.13107684 26.70363588 -40.16045532 34.8594306 -40.625 45.4375 C-40.66367187 46.16904297 -40.70234375 46.90058594 -40.7421875 47.65429688 C-40.83533984 49.43583532 -40.91870286 51.21788122 -41 53 C-41.82242188 53.18433594 -42.64484375 53.36867187 -43.4921875 53.55859375 C-53.16306777 56.07123585 -59.92728092 60.07342531 -65.65625 68.41015625 C-66.90012059 70.57608208 -67.99842439 72.71306903 -69 75 C-69.36351563 75.77601562 -69.72703125 76.55203125 -70.1015625 77.3515625 C-73.21838291 86.53940703 -71.10259718 96.50990307 -67 105 C-62.6914619 113.00157075 -55.40608544 118.71526914 -47 122 C-44.19605313 122.81264584 -41.70322339 123.12699953 -38.78757286 123.13422108 C-37.94976072 123.13867892 -37.11194857 123.14313676 -36.24874818 123.14772969 C-35.33339316 123.14754533 -34.41803813 123.14736097 -33.47494507 123.14717102 C-32.49853046 123.15084771 -31.52211585 123.1545244 -30.51611292 123.1583125 C-27.23518327 123.16934999 -23.95428529 123.17319331 -20.67333984 123.17700195 C-18.32447204 123.18326657 -15.97560523 123.18991336 -13.6267395 123.19691467 C-5.90481253 123.2179581 1.81711466 123.22831747 9.5390625 123.23828125 C12.19731024 123.24232873 14.85555787 123.24644565 17.51380539 123.25063133 C28.57144909 123.2676419 39.62909182 123.28213503 50.6867466 123.28938007 C53.55499905 123.29128987 56.42325149 123.29321022 59.29150391 123.29516602 C60.00436634 123.29564976 60.71722878 123.2961335 61.4516931 123.2966319 C72.99394908 123.30492833 84.5361013 123.33025944 96.07831199 123.36274669 C107.93683912 123.39585127 119.79531358 123.41383192 131.65388715 123.41702431 C138.30862946 123.41918631 144.96323775 123.42833488 151.617939 123.45348549 C157.88062272 123.47677195 164.14303447 123.48099688 170.40575027 123.47072411 C172.70106918 123.47022878 174.9964015 123.47654824 177.29167938 123.49028015 C180.4324583 123.50801512 183.57226288 123.50088434 186.71304321 123.48774719 C187.61501391 123.49871644 188.51698461 123.50968568 189.44628775 123.52098733 C198.18263813 123.43314982 205.39720522 120.77744543 212 115 C212.66 115 213.32 115 214 115 C213.67 114.01 213.34 113.02 213 112 C214.32 112 215.64 112 217 112 C217.433125 110.7934375 217.433125 110.7934375 217.875 109.5625 C219 107 219 107 221 106 C218.58548257 113.96790753 212.82796167 118.47830892 205.953125 122.640625 C198.40864989 126.11347862 191.29998644 127.44435376 183.03935242 127.3742218 C182.08851282 127.37819621 181.13767323 127.38217061 180.15802032 127.38626546 C176.99931509 127.39582349 173.84106509 127.3841096 170.68237305 127.37231445 C168.40645176 127.3747446 166.13053154 127.37846609 163.85461426 127.38337708 C157.69124965 127.39276062 151.52804457 127.38338097 145.36469245 127.37004495 C138.90188569 127.35869982 132.43908644 127.36284043 125.97627258 127.36479187 C115.12127735 127.36567407 104.26635408 127.35468301 93.41137695 127.33618164 C82.26747752 127.31719307 71.12365078 127.31009128 59.97973633 127.31567383 C46.52061478 127.32239632 33.06154698 127.31905994 19.60242653 127.30657005 C14.47477433 127.30193998 9.34714186 127.30104333 4.21948814 127.3031559 C-1.8273783 127.30504797 -7.87415226 127.29686448 -13.92099762 127.2810955 C-16.13280797 127.27687455 -18.34462775 127.27598725 -20.55644035 127.27878571 C-56.51561673 127.31735989 -56.51561673 127.31735989 -69.5 115.125 C-76.06768703 108.47089604 -77.5074514 101.92007448 -77.546875 92.734375 C-77.53140625 91.50203125 -77.5159375 90.2696875 -77.5 89 C-77.51546875 87.76765625 -77.5309375 86.5353125 -77.546875 85.265625 C-77.50733515 76.05284035 -76.07977829 69.50293212 -69.4375 62.875 C-64.07708594 57.77606956 -57.326207 53.48920563 -50 52 C-49.97421875 51.35675781 -49.9484375 50.71351562 -49.921875 50.05078125 C-48.95928132 34.71491379 -43.49359555 21.4295051 -32.234375 10.78125 C-28.15831923 7.53180694 -23.69878759 5.21810414 -19 3 C-18.3090625 2.65839844 -17.618125 2.31679688 -16.90625 1.96484375 C-11.36617974 -0.47596589 -5.97046959 -0.29632845 0 0 Z " fill="#374C57" transform="translate(77,38)"/>
<path d="M0 0 C3 4 3 4 4.6875 6.8125 C10.40704774 14.69620094 17.62893047 19.33200138 27 22 C33.64784071 22.94179698 40.27683067 23.14711387 46.98083496 23.14044189 C48.4102694 23.14489858 48.4102694 23.14489858 49.8685813 23.1494453 C53.03414146 23.15805696 56.19966347 23.15963407 59.36523438 23.16113281 C61.64602233 23.16576612 63.92680952 23.17079146 66.20759583 23.17617798 C72.38309769 23.18924958 78.55858872 23.19573599 84.73410225 23.20018864 C88.59533457 23.20312621 92.45656396 23.20723216 96.3177948 23.21169281 C107.02568731 23.22378857 117.73357599 23.23417646 128.44147491 23.2375679 C129.4668548 23.23789725 129.4668548 23.23789725 130.51294944 23.23823325 C131.54064037 23.23856067 131.54064037 23.23856067 132.58909273 23.2388947 C133.97720114 23.23933815 135.36530956 23.23978472 136.75341797 23.24023438 C137.44195309 23.2404558 138.13048821 23.24067723 138.83988804 23.24090537 C150.0034512 23.24485584 161.16694921 23.26232352 172.33048719 23.2855939 C183.81404347 23.30933687 195.29755775 23.32151322 206.78113985 23.32293582 C213.22003227 23.32398298 219.65883248 23.32987279 226.09770203 23.34775543 C232.15195724 23.36424498 238.20605098 23.36638722 244.26032066 23.35761642 C246.4782371 23.35684669 248.69616227 23.36118035 250.91405678 23.37107468 C253.94928399 23.3838184 256.98394122 23.37790413 260.01916504 23.36749268 C260.88980638 23.37554908 261.76044772 23.38360548 262.65747213 23.39190602 C273.46862873 23.30558906 283.86957621 19.73033297 291.85546875 12.265625 C294.94385857 8.81882944 297.13070862 5.25783037 299 1 C299.33 1 299.66 1 300 1 C300 9.58 300 18.16 300 27 C201 27 102 27 0 27 C0 18.09 0 9.18 0 0 Z " fill="#FDFDFD" transform="translate(0,141)"/>
<path d="M0 0 C0.33 0.66 0.66 1.32 1 2 C-5.21617179 11.27716547 -13.09812208 17.65665786 -24.04850197 20.53925037 C-28.17466493 21.18337347 -32.22963149 21.14099126 -36.39974976 21.13371277 C-37.35055062 21.13597833 -38.30135148 21.13824388 -39.28096449 21.14057809 C-42.46906027 21.14691158 -45.65711347 21.14608914 -48.84521484 21.14526367 C-51.1301326 21.14825555 -53.41504985 21.15165815 -55.69996643 21.15544128 C-61.90862274 21.16428218 -68.11726527 21.16661943 -74.32592726 21.16725707 C-79.50742922 21.16820625 -84.68892796 21.17188462 -89.87042868 21.17542917 C-101.3956728 21.18310867 -112.92090905 21.18609775 -124.44615535 21.18542381 C-125.13745924 21.18538386 -125.82876313 21.1853439 -126.54101562 21.18530273 C-127.23316519 21.18526185 -127.92531475 21.18522097 -128.63843854 21.18517885 C-139.8560628 21.18477239 -151.07365349 21.19434259 -162.29126804 21.2084411 C-173.81420027 21.22280888 -185.33711181 21.22952797 -196.86005366 21.22884732 C-203.32740635 21.22859221 -209.79472105 21.23145073 -216.26206589 21.24202538 C-222.34412678 21.25169845 -228.4261133 21.25179092 -234.5081768 21.24450874 C-236.74024629 21.24346195 -238.97232038 21.24583141 -241.20438194 21.2518692 C-244.25176999 21.2595785 -247.29890051 21.25495122 -250.34628296 21.24723816 C-251.22907342 21.25238172 -252.11186389 21.25752529 -253.02140558 21.26282471 C-258.06400785 21.2346298 -262.21896536 20.62503863 -267 19 C-267 18.34 -267 17.68 -267 17 C-265.75170725 17.00368717 -264.5034145 17.00737434 -263.21729469 17.01117325 C-233.56427723 17.09786385 -203.91129253 17.16379164 -174.25817934 17.20426132 C-170.60587585 17.20926395 -166.95357263 17.21444126 -163.30126953 17.21972656 C-162.57418263 17.2207758 -161.84709573 17.22182505 -161.09797589 17.22290608 C-149.33561175 17.24029631 -137.57332606 17.27182633 -125.81100841 17.30861118 C-113.7356525 17.34605917 -101.6603376 17.36824399 -89.58492601 17.37635398 C-82.80491185 17.38134291 -76.02506106 17.39331031 -69.24510574 17.42292023 C-62.86101408 17.45010892 -56.47717308 17.45843784 -50.09302902 17.45243073 C-47.75255724 17.4535294 -45.41207691 17.46146239 -43.07165527 17.4768219 C-39.86937438 17.49680327 -36.66803263 17.49190888 -33.46572876 17.48101807 C-32.08533431 17.49849512 -32.08533431 17.49849512 -30.67705309 17.51632524 C-21.88050882 17.43578645 -14.65304778 14.82141681 -8 9 C-7.34 9 -6.68 9 -6 9 C-6.33 8.01 -6.66 7.02 -7 6 C-5.68 6 -4.36 6 -3 6 C-2.690625 5.195625 -2.38125 4.39125 -2.0625 3.5625 C-1 1 -1 1 0 0 Z " fill="#586A76" transform="translate(297,144)"/>
<path d="M0 0 C3.45255686 1.342661 6.78512479 2.83735083 10.125 4.4375 C22.32549849 10.00408006 34.18438146 11.1796253 47.4375 11.1875 C49.05881836 11.20586914 49.05881836 11.20586914 50.71289062 11.22460938 C59.75604892 11.24106145 67.35545554 9.63023425 75.9375 6.875 C81.78832117 5 81.78832117 5 84 5 C83.7734375 6.84375 83.7734375 6.84375 83 9 C68.56335511 19.21853054 48.60492922 21.28439065 31.55566406 18.61767578 C19.97047692 16.04860792 8.53149195 10.29450606 0 2 C0 1.34 0 0.68 0 0 Z " fill="#FDF7EB" transform="translate(102,109)"/>
<path d="M0 0 C1.65 0 3.3 0 5 0 C7.08351615 3.58727128 7.80141379 7.20694042 8.625 11.25 C8.88539063 12.51328125 9.14578125 13.7765625 9.4140625 15.078125 C9.60742188 16.04234375 9.80078125 17.0065625 10 18 C12.01839524 12.95401189 13.52717637 8.11979101 14.5703125 2.78515625 C15 1 15 1 16 0 C17.66617115 -0.04063832 19.33388095 -0.042721 21 0 C23 6 25 12 27 18 C27.27714844 16.95199219 27.55429688 15.90398437 27.83984375 14.82421875 C28.20567952 13.44529933 28.57156767 12.0663938 28.9375 10.6875 C29.11990234 9.99720703 29.30230469 9.30691406 29.49023438 8.59570312 C30.2593261 5.70112156 31.05261576 2.84215271 32 0 C33.65 0 35.3 0 37 0 C35.5033316 9.42901093 32.29106874 18.07892687 29 27 C26.625 27.1875 26.625 27.1875 24 27 C21.68622795 23.52934193 21.11015527 20.32959845 20.375 16.3125 C20.2409375 15.61060547 20.106875 14.90871094 19.96875 14.18554688 C19.6397283 12.45818294 19.31904688 10.72923409 19 9 C17.03938947 12.43743404 16.26199437 15.83266506 15.4375 19.6875 C14.10481586 25.89518414 14.10481586 25.89518414 13 27 C11.33382885 27.04063832 9.66611905 27.042721 8 27 C5.67201671 21.83884056 3.88265296 16.68623955 2.3125 11.25 C1.97508789 10.11884766 1.97508789 10.11884766 1.63085938 8.96484375 C0.73196553 5.88838639 0 3.2219598 0 0 Z " fill="#FDF8EB" transform="translate(131,74)"/>
<path d="M0 0 C2.8100346 1.79363911 4.50940468 3.01880935 6 6 C6.15175549 7.59262066 6.24900325 9.19064856 6.31640625 10.7890625 C6.35830078 11.73007813 6.40019531 12.67109375 6.44335938 13.640625 C6.48267578 14.62546875 6.52199219 15.6103125 6.5625 16.625 C6.60568359 17.61757812 6.64886719 18.61015625 6.69335938 19.6328125 C6.79961069 22.08839838 6.90164964 24.54408703 7 27 C5.68 27.33 4.36 27.66 3 28 C2.67 27.01 2.34 26.02 2 25 C0.96875 25.66 -0.0625 26.32 -1.125 27 C-4.59416872 28.9514074 -6.97150596 29.78818362 -11 29 C-13.875 26.9375 -13.875 26.9375 -16 24 C-16.5625 20.4375 -16.5625 20.4375 -16 17 C-14.13291495 14.63502561 -12.67938569 13.33969285 -10 12 C-8.50243129 11.90500497 -7.00057068 11.87012802 -5.5 11.875 C-4.30890625 11.87113281 -4.30890625 11.87113281 -3.09375 11.8671875 C-1 12 -1 12 1 13 C0.34 10.69 -0.32 8.38 -1 6 C-5.29 6 -9.58 6 -14 6 C-14 4.68 -14 3.36 -14 2 C-9.03312696 0.01325078 -5.2749095 -0.50237233 0 0 Z " fill="#FDF9ED" transform="translate(122,73)"/>
<path d="M0 0 C0.33 0.66 0.66 1.32 1 2 C-4.91043584 10.82087773 -11.90004114 16.53724423 -22 20 C-25.37578407 20.51151878 -28.67074602 20.50219154 -32.07972717 20.4430542 C-33.05521891 20.44238835 -34.03071064 20.44172249 -35.03576273 20.44103646 C-38.28342954 20.43395029 -41.53012078 20.3981304 -44.77758789 20.36230469 C-47.11385356 20.35130732 -49.45012819 20.34209104 -51.78640747 20.33451843 C-58.11438872 20.30897501 -64.44195497 20.25856148 -70.76974034 20.20364666 C-76.71707765 20.15584479 -82.66448209 20.12671069 -88.61193519 20.09746507 C-100.38684157 20.03895876 -112.16155858 19.9624433 -123.9362793 19.87451172 C-135.36982723 19.78916673 -146.80338031 19.71235976 -158.23706055 19.64697266 C-158.94261399 19.64293477 -159.64816743 19.63889688 -160.37510128 19.63473663 C-163.91488967 19.61453085 -167.45467899 19.59449227 -170.99446881 19.5745368 C-200.32982829 19.40894343 -229.66495222 19.21378298 -259 19 C-259 18.67 -259 18.34 -259 18 C-257.79293711 17.99853344 -256.58587421 17.99706688 -255.34223366 17.99555588 C-226.66664051 17.95982711 -197.99113621 17.90354731 -169.31563751 17.82207905 C-165.78350485 17.81206201 -162.25137172 17.80221781 -158.71923828 17.79248047 C-158.0160763 17.7905391 -157.31291432 17.78859772 -156.5884444 17.78659752 C-145.21411819 17.75560577 -133.83981214 17.73860477 -122.46545167 17.72680578 C-110.78779615 17.71437954 -99.11025215 17.68654894 -87.43266237 17.64538693 C-80.87625169 17.62276216 -74.31999154 17.60708995 -67.76353836 17.60811615 C-61.58949173 17.60886214 -55.41577798 17.59093519 -49.24181747 17.55883217 C-46.97877775 17.55032976 -44.71570071 17.54858553 -42.45265198 17.55419731 C-39.35538719 17.56085332 -36.25917654 17.5428773 -33.16201782 17.51898193 C-31.82831475 17.53062256 -31.82831475 17.53062256 -30.46766818 17.54249835 C-21.77774253 17.42435148 -14.56597278 14.74522618 -8 9 C-7.34 9 -6.68 9 -6 9 C-6.33 8.01 -6.66 7.02 -7 6 C-5.68 6 -4.36 6 -3 6 C-2.690625 5.195625 -2.38125 4.39125 -2.0625 3.5625 C-1 1 -1 1 0 0 Z " fill="#5F563B" transform="translate(297,144)"/>
<path d="M0 0 C2.27734375 1.02734375 2.27734375 1.02734375 4 2 C4 3.32 4 4.64 4 6 C3.484375 5.835 2.96875 5.67 2.4375 5.5 C-0.73363876 4.84951 -3.77218334 4.9379266 -7 5 C-7.33 6.65 -7.66 8.3 -8 10 C-7.15695313 10.32613281 -6.31390625 10.65226562 -5.4453125 10.98828125 C-4.34960938 11.42527344 -3.25390625 11.86226562 -2.125 12.3125 C-1.03445312 12.74175781 0.05609375 13.17101562 1.1796875 13.61328125 C4 15 4 15 6 18 C6 21.4375 6 21.4375 5 25 C1.84678306 27.99940148 -0.71110413 29.23505522 -5 29.375 C-8.5729879 29.19635061 -11.66989606 28.33204158 -15 27 C-15 25.68 -15 24.36 -15 23 C-14.15695313 23.08378906 -13.31390625 23.16757813 -12.4453125 23.25390625 C-11.34960938 23.35574219 -10.25390625 23.45757812 -9.125 23.5625 C-8.03445312 23.66691406 -6.94390625 23.77132812 -5.8203125 23.87890625 C-3.04847977 24.22639404 -3.04847977 24.22639404 -1 23 C-1 21.68 -1 20.36 -1 19 C-2.03060547 18.63648438 -2.03060547 18.63648438 -3.08203125 18.265625 C-4.43361328 17.76289062 -4.43361328 17.76289062 -5.8125 17.25 C-6.70582031 16.92515625 -7.59914062 16.6003125 -8.51953125 16.265625 C-11.28951486 14.85227903 -12.42958673 13.65801341 -14 11 C-14.6791864 7.00977991 -14.33887861 5.50285213 -12.0625 2.125 C-8.02344461 -0.67760986 -4.78997586 -0.81403883 0 0 Z " fill="#FCF5E6" transform="translate(185,73)"/>
<path d="M0 0 C-3.15338287 1.64784853 -6.37665842 2.95163075 -9.6875 4.25 C-15.31345005 6.57986969 -20.12484303 9.37288321 -25 13 C-26.03125 13.7425 -27.0625 14.485 -28.125 15.25 C-34.29967339 21.15620933 -38.37717652 28.33633494 -42 36 C-43 37 -43 37 -46.0625 37.0625 C-47.031875 37.041875 -48.00125 37.02125 -49 37 C-48.24121077 30.21031453 -45.0661129 26.29775706 -41 21 C-40.52304688 20.35546875 -40.04609375 19.7109375 -39.5546875 19.046875 C-30.65215463 7.75337616 -14.50888248 -0.72544412 0 0 Z " fill="#384A54" transform="translate(146,3)"/>
<path d="M0 0 C0.79849365 -0.00942627 1.5969873 -0.01885254 2.41967773 -0.02856445 C8.19181283 0.00431283 8.19181283 0.00431283 10.4375 2.25 C9.38433594 2.20359375 8.33117187 2.1571875 7.24609375 2.109375 C-9.48455032 1.59569774 -23.56158045 4.87140041 -36.3125 16.4375 C-44.62084827 25.30641153 -48.6619408 35.72007915 -49.1875 47.6875 C-49.22617187 48.41904297 -49.26484375 49.15058594 -49.3046875 49.90429688 C-49.39783984 51.68583532 -49.48120286 53.46788122 -49.5625 55.25 C-51.2640625 55.5903125 -51.2640625 55.5903125 -53 55.9375 C-62.88456356 58.49565289 -69.573748 64.05297072 -75.5625 72.25 C-79.59168733 79.20950539 -80.29006773 86.32222097 -80.5625 94.25 C-80.8925 94.25 -81.2225 94.25 -81.5625 94.25 C-82.22741661 81.26565613 -80.18399604 73.02633846 -71.5625 63.25 C-66.58438982 57.99825162 -61.73981071 54.66657448 -54.5625 53.25 C-53.2425 53.25 -51.9225 53.25 -50.5625 53.25 C-50.60890625 52.22261719 -50.6553125 51.19523437 -50.703125 50.13671875 C-51.13138343 36.68321643 -48.45367788 26.75312807 -39.5625 16.25 C-27.6622253 3.89656915 -16.84603778 0.15494823 0 0 Z " fill="#BC4E14" transform="translate(86.5625,37.75)"/>
<path d="M0 0 C1.36535889 0.00918457 1.36535889 0.00918457 2.75830078 0.01855469 C13.26002979 0.2596327 22.91097873 2.54481915 31.75 8.4375 C31.09 8.7675 30.43 9.0975 29.75 9.4375 C27.59613334 8.6132931 25.5885118 7.5754164 23.52734375 6.54296875 C9.81162438 1.08368805 -7.24637863 1.52350976 -20.87890625 6.82421875 C-36.38856586 14.24657033 -45.02481572 25.18433319 -52.25 40.4375 C-54.56 39.7775 -56.87 39.1175 -59.25 38.4375 C-59.25 38.1075 -59.25 37.7775 -59.25 37.4375 C-58.21875 37.355 -57.1875 37.2725 -56.125 37.1875 C-53.14309666 36.35686961 -52.37153195 35.63651247 -50.73046875 32.94921875 C-49.75723015 30.83919457 -48.79147007 28.7257097 -47.83203125 26.609375 C-42.03197657 14.9806234 -29.99806215 7.00556546 -18.03222656 2.62573242 C-11.92196253 0.65779826 -6.40591835 -0.07419521 0 0 Z " fill="#C45113" transform="translate(156.25,2.5625)"/>
<path d="M0 0 C1.17175781 0.03480469 2.34351563 0.06960937 3.55078125 0.10546875 C5.32001953 0.14607422 5.32001953 0.14607422 7.125 0.1875 C8.02863281 0.22230469 8.93226563 0.25710937 9.86328125 0.29296875 C10.34569608 6.08194673 9.34309984 10.52131115 5.86328125 15.29296875 C4.87328125 15.62296875 3.88328125 15.95296875 2.86328125 16.29296875 C3.38411458 14.33984375 3.90494792 12.38671875 4.42578125 10.43359375 C4.99677474 8.00395014 4.99677474 8.00395014 4.86328125 4.29296875 C1.23328125 3.96296875 -2.39671875 3.63296875 -6.13671875 3.29296875 C-3.13671875 0.29296875 -3.13671875 0.29296875 0 0 Z " fill="#FDF8E9" transform="translate(184.13671875,107.70703125)"/>
<path d="M0 0 C1.37478516 0.01740234 1.37478516 0.01740234 2.77734375 0.03515625 C3.69644531 0.04417969 4.61554688 0.05320312 5.5625 0.0625 C6.27277344 0.07410156 6.98304687 0.08570312 7.71484375 0.09765625 C7.8515625 2.453125 7.8515625 2.453125 7.71484375 5.09765625 C5.22736752 7.72727398 3.61991379 8.95031927 0.02734375 9.53515625 C-1.11734375 9.31859375 -1.11734375 9.31859375 -2.28515625 9.09765625 C-4.28515625 6.09765625 -4.28515625 6.09765625 -3.97265625 3.47265625 C-3.00458235 0.12840096 -3.00458235 0.12840096 0 0 Z " fill="#F1921C" transform="translate(115.28515625,88.90234375)"/>
<path d="M0 0 C2.04518537 1.17598159 3.46469094 2.41563186 5.03125 4.16796875 C4.42796875 3.96300781 3.8246875 3.75804687 3.203125 3.546875 C2.40390625 3.27746094 1.6046875 3.00804687 0.78125 2.73046875 C-0.00765625 2.46363281 -0.7965625 2.19679688 -1.609375 1.921875 C-11.3114815 -1.17830141 -20.47910756 -0.35915499 -29.96875 3.16796875 C-30.29875 1.51796875 -30.62875 -0.13203125 -30.96875 -1.83203125 C-21.5604605 -4.96812775 -8.9997437 -3.71666631 0 0 Z " fill="#AF592D" transform="translate(245.96875,54.83203125)"/>
<path d="M0 0 C0.33 0.66 0.66 1.32 1 2 C-4.3821096 10.03239084 -10.68641017 15.95517255 -20 19 C-22.203125 18.56640625 -22.203125 18.56640625 -24 18 C-23.43152344 17.76925781 -22.86304688 17.53851563 -22.27734375 17.30078125 C-18.24419911 15.59729946 -14.59075447 13.86269477 -11.0625 11.25 C-8 9 -8 9 -6 9 C-6.33 8.01 -6.66 7.02 -7 6 C-5.68 6 -4.36 6 -3 6 C-2.690625 5.195625 -2.38125 4.39125 -2.0625 3.5625 C-1 1 -1 1 0 0 Z " fill="#4C5247" transform="translate(297,144)"/>
<path d="M0 0 C0 0.33 0 0.66 0 1 C-1.01707031 1.11214844 -1.01707031 1.11214844 -2.0546875 1.2265625 C-8.69704713 2.1649568 -13.35476931 3.99073631 -18.90625 7.7578125 C-21 9 -21 9 -24 9 C-23.09082668 5.90264683 -22.58564783 4.36047812 -19.78515625 2.63671875 C-13.00739431 0.27374005 -7.16344109 -0.49880828 0 0 Z " fill="#3B4C54" transform="translate(77,38)"/>
<path d="M0 0 C1.30517578 0.02030273 1.30517578 0.02030273 2.63671875 0.04101562 C4.75808627 0.07598322 6.87912974 0.1297747 9 0.1875 C9 0.5175 9 0.8475 9 1.1875 C7.80503906 1.30867187 6.61007813 1.42984375 5.37890625 1.5546875 C-6.40719045 2.78386064 -6.40719045 2.78386064 -18 5.1875 C-18 4.5275 -18 3.8675 -18 3.1875 C-11.75047564 0.43163336 -6.78716692 -0.20330223 0 0 Z " fill="#C24507" transform="translate(156,2.8125)"/>
<path d="M0 0 C0.33 0 0.66 0 1 0 C1 4.29 1 8.58 1 13 C-0.216875 13.28875 -1.43375 13.5775 -2.6875 13.875 C-5.91814648 14.67835792 -8.94320935 15.66265409 -12 17 C-11.375 15.125 -11.375 15.125 -10 13 C-6.38181456 11.42687589 -3.97906647 11 0 11 C0 7.37 0 3.74 0 0 Z " fill="#D1590F" transform="translate(36,80)"/>
<path d="M0 0 C1.45792884 -0.05399736 2.91642712 -0.09279177 4.375 -0.125 C5.18710938 -0.14820312 5.99921875 -0.17140625 6.8359375 -0.1953125 C9 0 9 0 11 2 C10.67 2.66 10.34 3.32 10 4 C7.03 4 4.06 4 1 4 C0.67 2.68 0.34 1.36 0 0 Z " fill="#FCF3E0" transform="translate(112,85)"/>
<path d="M0 0 C3.4375 1.25 3.4375 1.25 7 3 C7.9375 5.1875 7.9375 5.1875 8 7 C1.125 6.125 1.125 6.125 0 5 C-0.04063832 3.33382885 -0.042721 1.66611905 0 0 Z " fill="#3E525A" transform="translate(23,157)"/>
<path d="M0 0 C-0.125 1.8125 -0.125 1.8125 -1 4 C-4.0625 5.75 -4.0625 5.75 -7 7 C-7 5.35 -7 3.7 -7 2 C-2.25 0 -2.25 0 0 0 Z " fill="#FBEFD8" transform="translate(186,114)"/>
<path d="M0 0 C0.98484375 0.00902344 1.9696875 0.01804688 2.984375 0.02734375 C4.10585937 0.04474609 4.10585937 0.04474609 5.25 0.0625 C5.25 0.3925 5.25 0.7225 5.25 1.0625 C4.49074219 1.19527344 3.73148438 1.32804687 2.94921875 1.46484375 C1.95535156 1.64144531 0.96148437 1.81804688 -0.0625 2 C-1.04863281 2.17402344 -2.03476563 2.34804688 -3.05078125 2.52734375 C-5.83189213 3.01996847 -5.83189213 3.01996847 -8.75 4.0625 C-9.08 3.0725 -9.41 2.0825 -9.75 1.0625 C-6.43929162 0.06140485 -3.44915231 -0.04106134 0 0 Z " fill="#595454" transform="translate(71.75,37.9375)"/>
<path d="M0 0 C2 2 2 2 2.125 5.625 C2.08375 6.73875 2.0425 7.8525 2 9 C1.01 8.67 0.02 8.34 -1 8 C-0.67 5.36 -0.34 2.72 0 0 Z " fill="#ED9321" transform="translate(149,81)"/>
<path d="M0 0 C2.64 0.33 5.28 0.66 8 1 C6 3 6 3 3.375 3.125 C2.59125 3.08375 1.8075 3.0425 1 3 C0.67 2.01 0.34 1.02 0 0 Z " fill="#31454B" transform="translate(30,161)"/>
<path d="M0 0 C1.25541557 3.76624671 0.37061958 5.37188934 -1 9 C-3 7 -3 7 -3.125 4.375 C-3.08375 3.59125 -3.0425 2.8075 -3 2 C-2.34 2 -1.68 2 -1 2 C-0.67 1.34 -0.34 0.68 0 0 Z " fill="#E89424" transform="translate(143,85)"/>
</svg>
