<?xml version="1.0" encoding="UTF-8"?>
<svg version="1.1" xmlns="http://www.w3.org/2000/svg" width="317" height="159">
<path d="M0 0 C104.61 0 209.22 0 317 0 C317 52.47 317 104.94 317 159 C212.39 159 107.78 159 0 159 C0 106.53 0 54.06 0 0 Z " fill="#FDFDFD" transform="translate(0,0)"/>
<path d="M0 0 C3.76319479 2.10364926 6.97237948 4.73379697 10.25390625 7.515625 C12.10643851 9.06420119 13.90971282 10.38479353 15.953125 11.65625 C18.46995368 13.37505983 19.95477695 14.80483659 21.515625 17.40625 C21.515625 18.06625 21.515625 18.72625 21.515625 19.40625 C22.95465546 18.78478192 24.39179293 18.15892941 25.828125 17.53125 C26.62863281 17.18320312 27.42914063 16.83515625 28.25390625 16.4765625 C30.7118084 15.38053106 30.7118084 15.38053106 33.515625 13.40625 C35.515625 13.46875 35.515625 13.46875 37.515625 14.40625 C42.84130917 21.86489081 43.59143476 33.44116863 42.515625 42.40625 C40.98004304 49.9675333 38.75963053 55.41743298 32.51171875 60.140625 C28.94885832 62.39965979 26.02832902 63.34085934 21.8046875 63.5234375 C18.95586892 63.65055014 16.30027932 63.78295378 13.515625 64.40625 C11.39728755 67.22455246 11.39728755 67.22455246 10.515625 70.40625 C7.25566914 72.57955391 6.28582534 72.65546459 2.515625 72.59375 C1.649375 72.58730469 0.783125 72.58085938 -0.109375 72.57421875 C-2.484375 72.40625 -2.484375 72.40625 -5.484375 71.40625 C-4.989375 75.36625 -4.989375 75.36625 -4.484375 79.40625 C1.125625 79.40625 6.735625 79.40625 12.515625 79.40625 C13.010625 77.42625 13.010625 77.42625 13.515625 75.40625 C15.495625 75.40625 17.475625 75.40625 19.515625 75.40625 C19.515625 76.39625 19.515625 77.38625 19.515625 78.40625 C30.17521977 79.3365117 40.69323145 79.49205753 51.3918457 79.38574219 C53.37708434 79.36782104 55.36237257 79.3556796 57.34765625 79.34375 C58.51014893 79.33214844 59.6726416 79.32054688 60.87036133 79.30859375 C63.515625 79.40625 63.515625 79.40625 64.515625 80.40625 C64.95888168 85.39546474 64.90918409 89.90072701 62.515625 94.40625 C61.515625 95.40625 61.515625 95.40625 59.23046875 95.50390625 C58.31394531 95.49230469 57.39742187 95.48070313 56.453125 95.46875 C55.07447266 95.45521484 55.07447266 95.45521484 53.66796875 95.44140625 C52.60255859 95.42400391 52.60255859 95.42400391 51.515625 95.40625 C51.185625 96.72625 50.855625 98.04625 50.515625 99.40625 C47.875625 99.40625 45.235625 99.40625 42.515625 99.40625 C42.515625 98.08625 42.515625 96.76625 42.515625 95.40625 C33.78730131 95.37468902 25.06004326 95.38096986 16.33182526 95.43471622 C12.27825009 95.45850625 8.22549472 95.46957119 4.171875 95.45092773 C0.25504111 95.43339203 -3.66032481 95.45010193 -7.57698059 95.48992729 C-9.06636529 95.49917594 -10.55587826 95.49636884 -12.04521179 95.48094368 C-21.88878027 95.23103041 -21.88878027 95.23103041 -30.15039062 100.02514648 C-30.96521912 101.00486671 -30.96521912 101.00486671 -31.79650879 102.00437927 C-33.484375 103.40625 -33.484375 103.40625 -36.06872559 103.22865295 C-39.06687116 102.20794036 -40.24221449 100.90606142 -42.234375 98.46875 C-42.82734375 97.75847656 -43.4203125 97.04820313 -44.03125 96.31640625 C-46.61387729 92.92150102 -46.74966379 90.65087071 -46.484375 86.40625 C-45.824375 85.74625 -45.164375 85.08625 -44.484375 84.40625 C-47.454375 84.07625 -50.424375 83.74625 -53.484375 83.40625 C-53.67 84.8603125 -53.67 84.8603125 -53.859375 86.34375 C-55.60311008 98.52498508 -55.60311008 98.52498508 -57.484375 100.40625 C-64.28087947 101.10747665 -70.24093376 100.15108863 -76.484375 97.40625 C-77.484375 96.40625 -77.484375 96.40625 -77.58203125 94.55859375 C-77.53320312 91.48242188 -77.53320312 91.48242188 -77.484375 88.40625 C-78.165 88.365 -78.845625 88.32375 -79.546875 88.28125 C-83.80464089 87.01297931 -86.55769668 84.71176232 -89.484375 81.40625 C-91.296875 77.96875 -91.296875 77.96875 -91.484375 74.40625 C-89.98110837 72.90298337 -88.47578536 71.40168042 -86.95703125 69.9140625 C-83.53169807 64.08100175 -84.49833233 56.00108674 -84.484375 49.40625 C-85.43570313 49.29539063 -86.38703125 49.18453125 -87.3671875 49.0703125 C-90.484375 48.40625 -90.484375 48.40625 -92.359375 45.78125 C-93.6327882 41.9610104 -93.98445206 39.40686648 -93.484375 35.40625 C-90.43174342 29.72203947 -90.43174342 29.72203947 -86.484375 28.40625 C-84.48586038 32.5281864 -84.22651816 35.85077917 -84.484375 40.40625 C-84.814375 41.06625 -85.144375 41.72625 -85.484375 42.40625 C-82.2831696 39.4875039 -80.05815904 36.77046124 -77.859375 33.03125 C-73.4215463 26.30726712 -67.31135474 22.08286926 -59.390625 20.44921875 C-57.28105983 20.06264922 -55.18400078 19.72788532 -53.05517578 19.46728516 C-48.38206627 18.84968849 -45.94887195 17.55245394 -42.484375 14.40625 C-41.494375 13.931875 -40.504375 13.4575 -39.484375 12.96875 C-36.0899766 11.20083416 -34.1571556 9.14118829 -31.484375 6.40625 C-21.40667355 -2.12387024 -12.70144279 -5.59183016 0 0 Z " fill="#FAEF0E" transform="translate(173.484375,30.59375)"/>
<path d="M0 0 C3.76319479 2.10364926 6.97237948 4.73379697 10.25390625 7.515625 C12.10643851 9.06420119 13.90971282 10.38479353 15.953125 11.65625 C18.46995368 13.37505983 19.95477695 14.80483659 21.515625 17.40625 C21.515625 18.06625 21.515625 18.72625 21.515625 19.40625 C22.95465546 18.78478192 24.39179293 18.15892941 25.828125 17.53125 C26.62863281 17.18320312 27.42914063 16.83515625 28.25390625 16.4765625 C30.7118084 15.38053106 30.7118084 15.38053106 33.515625 13.40625 C35.515625 13.46875 35.515625 13.46875 37.515625 14.40625 C42.84130917 21.86489081 43.59143476 33.44116863 42.515625 42.40625 C40.98004304 49.9675333 38.75963053 55.41743298 32.51171875 60.140625 C28.94885832 62.39965979 26.02832902 63.34085934 21.8046875 63.5234375 C18.95586892 63.65055014 16.30027932 63.78295378 13.515625 64.40625 C11.39728755 67.22455246 11.39728755 67.22455246 10.515625 70.40625 C7.25566914 72.57955391 6.28582534 72.65546459 2.515625 72.59375 C1.649375 72.58730469 0.783125 72.58085938 -0.109375 72.57421875 C-2.484375 72.40625 -2.484375 72.40625 -5.484375 71.40625 C-4.989375 75.36625 -4.989375 75.36625 -4.484375 79.40625 C1.125625 79.40625 6.735625 79.40625 12.515625 79.40625 C13.010625 77.42625 13.010625 77.42625 13.515625 75.40625 C15.495625 75.40625 17.475625 75.40625 19.515625 75.40625 C19.515625 76.39625 19.515625 77.38625 19.515625 78.40625 C30.17521977 79.3365117 40.69323145 79.49205753 51.3918457 79.38574219 C53.37708434 79.36782104 55.36237257 79.3556796 57.34765625 79.34375 C58.51014893 79.33214844 59.6726416 79.32054688 60.87036133 79.30859375 C63.515625 79.40625 63.515625 79.40625 64.515625 80.40625 C64.95888168 85.39546474 64.90918409 89.90072701 62.515625 94.40625 C61.515625 95.40625 61.515625 95.40625 59.23046875 95.50390625 C58.31394531 95.49230469 57.39742187 95.48070313 56.453125 95.46875 C55.07447266 95.45521484 55.07447266 95.45521484 53.66796875 95.44140625 C52.60255859 95.42400391 52.60255859 95.42400391 51.515625 95.40625 C51.185625 96.72625 50.855625 98.04625 50.515625 99.40625 C47.875625 99.40625 45.235625 99.40625 42.515625 99.40625 C42.515625 98.08625 42.515625 96.76625 42.515625 95.40625 C33.78730131 95.37468902 25.06004326 95.38096986 16.33182526 95.43471622 C12.27825009 95.45850625 8.22549472 95.46957119 4.171875 95.45092773 C0.25504111 95.43339203 -3.66032481 95.45010193 -7.57698059 95.48992729 C-9.06636529 95.49917594 -10.55587826 95.49636884 -12.04521179 95.48094368 C-21.88878027 95.23103041 -21.88878027 95.23103041 -30.15039062 100.02514648 C-30.96521912 101.00486671 -30.96521912 101.00486671 -31.79650879 102.00437927 C-33.484375 103.40625 -33.484375 103.40625 -36.06872559 103.22865295 C-39.06687116 102.20794036 -40.24221449 100.90606142 -42.234375 98.46875 C-42.82734375 97.75847656 -43.4203125 97.04820313 -44.03125 96.31640625 C-46.61387729 92.92150102 -46.74966379 90.65087071 -46.484375 86.40625 C-45.824375 85.74625 -45.164375 85.08625 -44.484375 84.40625 C-47.454375 84.07625 -50.424375 83.74625 -53.484375 83.40625 C-53.67 84.8603125 -53.67 84.8603125 -53.859375 86.34375 C-55.60311008 98.52498508 -55.60311008 98.52498508 -57.484375 100.40625 C-64.28087947 101.10747665 -70.24093376 100.15108863 -76.484375 97.40625 C-77.484375 96.40625 -77.484375 96.40625 -77.58203125 94.55859375 C-77.53320312 91.48242188 -77.53320312 91.48242188 -77.484375 88.40625 C-78.165 88.365 -78.845625 88.32375 -79.546875 88.28125 C-83.80464089 87.01297931 -86.55769668 84.71176232 -89.484375 81.40625 C-91.296875 77.96875 -91.296875 77.96875 -91.484375 74.40625 C-89.98110837 72.90298337 -88.47578536 71.40168042 -86.95703125 69.9140625 C-83.53169807 64.08100175 -84.49833233 56.00108674 -84.484375 49.40625 C-85.43570313 49.29539063 -86.38703125 49.18453125 -87.3671875 49.0703125 C-90.484375 48.40625 -90.484375 48.40625 -92.359375 45.78125 C-93.6327882 41.9610104 -93.98445206 39.40686648 -93.484375 35.40625 C-90.43174342 29.72203947 -90.43174342 29.72203947 -86.484375 28.40625 C-84.48586038 32.5281864 -84.22651816 35.85077917 -84.484375 40.40625 C-84.814375 41.06625 -85.144375 41.72625 -85.484375 42.40625 C-82.2831696 39.4875039 -80.05815904 36.77046124 -77.859375 33.03125 C-73.4215463 26.30726712 -67.31135474 22.08286926 -59.390625 20.44921875 C-57.28105983 20.06264922 -55.18400078 19.72788532 -53.05517578 19.46728516 C-48.38206627 18.84968849 -45.94887195 17.55245394 -42.484375 14.40625 C-41.494375 13.931875 -40.504375 13.4575 -39.484375 12.96875 C-36.0899766 11.20083416 -34.1571556 9.14118829 -31.484375 6.40625 C-21.40667355 -2.12387024 -12.70144279 -5.59183016 0 0 Z M-27.484375 5.40625 C-28.515625 6.14875 -29.546875 6.89125 -30.609375 7.65625 C-31.228125 8.23375 -31.846875 8.81125 -32.484375 9.40625 C-32.484375 10.06625 -32.484375 10.72625 -32.484375 11.40625 C-30.174375 11.40625 -27.864375 11.40625 -25.484375 11.40625 C-26.7528125 11.62667969 -26.7528125 11.62667969 -28.046875 11.8515625 C-35.56507613 13.3381159 -40.95284542 15.02801916 -46.484375 20.40625 C-46.99097656 20.89738281 -47.49757812 21.38851562 -48.01953125 21.89453125 C-51.44091176 25.57137484 -54.18951218 29.76744517 -56.921875 33.96875 C-57.62183594 35.04253906 -58.32179688 36.11632812 -59.04296875 37.22265625 C-60.72359058 40.93459877 -60.64240038 42.55152661 -59.484375 46.40625 C-57.67058508 49.75377558 -57.67058508 49.75377558 -55.484375 52.40625 C-54.824375 52.40625 -54.164375 52.40625 -53.484375 52.40625 C-54.144375 53.06625 -54.804375 53.72625 -55.484375 54.40625 C-56.01215162 58.27661189 -55.56644115 60.23580491 -53.859375 63.78125 C-51.76278134 66.66364025 -51.76278134 66.66364025 -48.7734375 66.78125 C-44.84288009 66.33311044 -41.89506162 64.90787233 -38.484375 63.03125 C-34.24318741 60.75323221 -30.11075029 58.80262547 -25.484375 57.40625 C-25.39488707 51.26141229 -25.4521103 45.4708051 -26.484375 39.40625 C-26.57134865 35.73800856 -26.5431241 32.07480511 -26.484375 28.40625 C-25.49445421 35.97962459 -24.51487577 43.55812202 -23.734375 51.15625 C-23.63640625 52.07921875 -23.5384375 53.0021875 -23.4375 53.953125 C-23.49061193 56.73264912 -23.84315179 58.16223185 -25.484375 60.40625 C-27.296875 61.05859375 -27.296875 61.05859375 -29.484375 61.34375 C-33.3108682 62.0143091 -36.2000821 63.17021397 -39.609375 65.03125 C-43.76178444 67.20417233 -46.72257187 68.26337456 -51.484375 67.40625 C-54.18911371 65.28605189 -55.33685645 64.00051507 -56.171875 60.63671875 C-56.275 59.63253906 -56.378125 58.62835938 -56.484375 57.59375 C-56.9983595 53.70821578 -57.49231072 50.86681581 -59.671875 47.59375 C-61.484375 44.40625 -61.484375 44.40625 -61.671875 41.09375 C-60.23964054 36.64628509 -57.99860059 33.52505004 -55.17578125 29.8359375 C-53.49591913 27.42283302 -52.46245492 25.16846565 -51.484375 22.40625 C-59.19267918 21.73596268 -66.04933677 24.28115504 -72.234375 28.90625 C-79.37365842 35.53800142 -82.15515089 44.94436807 -82.72265625 54.359375 C-82.93291817 62.62935849 -82.99803875 70.12663743 -78.484375 77.40625 C-77.72125 78.14875 -76.958125 78.89125 -76.171875 79.65625 C-75.3365625 80.5225 -75.3365625 80.5225 -74.484375 81.40625 C-74.734375 84.15625 -74.734375 84.15625 -75.484375 87.40625 C-75.68247691 90.1288814 -75.62146111 92.66452785 -75.484375 95.40625 C-71.93297059 98.95765441 -66.85389006 98.46021178 -62.046875 98.46875 C-60.87125 98.448125 -59.695625 98.4275 -58.484375 98.40625 C-58.21625 97.271875 -57.948125 96.1375 -57.671875 94.96875 C-56.52588228 90.36004545 -55.04130855 85.89021861 -53.484375 81.40625 C-52.02064453 81.45845703 -52.02064453 81.45845703 -50.52734375 81.51171875 C-48.61888672 81.55232422 -48.61888672 81.55232422 -46.671875 81.59375 C-44.77501953 81.64595703 -44.77501953 81.64595703 -42.83984375 81.69921875 C-39.51841055 81.71452421 -39.51841055 81.71452421 -37.53515625 79.89453125 C-37.01501953 79.15783203 -37.01501953 79.15783203 -36.484375 78.40625 C-36.154375 79.72625 -35.824375 81.04625 -35.484375 82.40625 C-36.04125 82.48875 -36.598125 82.57125 -37.171875 82.65625 C-40.30675838 83.67296893 -42.15886403 85.08073903 -44.484375 87.40625 C-45.04855228 90.78567192 -44.73981713 92.04760469 -42.734375 94.86328125 C-41.991875 95.64058594 -41.249375 96.41789062 -40.484375 97.21875 C-39.370625 98.40404297 -39.370625 98.40404297 -38.234375 99.61328125 C-37.656875 100.20496094 -37.079375 100.79664063 -36.484375 101.40625 C-32.28043635 100.63788306 -30.96249994 98.85792403 -28.484375 95.40625 C-30.134375 95.40625 -31.784375 95.40625 -33.484375 95.40625 C-33.2678125 94.29765625 -33.05125 93.1890625 -32.828125 92.046875 C-32.54668182 90.58337047 -32.2654425 89.11982673 -31.984375 87.65625 C-31.84128906 86.92664063 -31.69820312 86.19703125 -31.55078125 85.4453125 C-30.89548621 82.01281468 -30.484375 78.91455509 -30.484375 75.40625 C-27.844375 75.40625 -25.204375 75.40625 -22.484375 75.40625 C-22.484375 76.72625 -22.484375 78.04625 -22.484375 79.40625 C-19.844375 79.40625 -17.204375 79.40625 -14.484375 79.40625 C-13.80680618 77.84844668 -13.14278043 76.28474904 -12.484375 74.71875 C-11.9275 73.41357422 -11.9275 73.41357422 -11.359375 72.08203125 C-10.45176172 69.30651741 -10.16693122 67.30292452 -10.484375 64.40625 C-12.3848217 62.56309329 -12.3848217 62.56309329 -14.484375 61.40625 C-10.73327903 63.21233324 -7.07377184 65.12652438 -3.8203125 67.74609375 C-0.81551445 70.1353715 0.78379337 71.36320108 4.703125 71.59375 C8.47129316 70.00274567 9.62661985 67.96629816 11.515625 64.40625 C11.515625 63.74625 11.515625 63.08625 11.515625 62.40625 C10.855625 62.40625 10.195625 62.40625 9.515625 62.40625 C9.185625 63.39625 8.855625 64.38625 8.515625 65.40625 C5.050625 65.90125 5.050625 65.90125 1.515625 66.40625 C1.185625 63.10625 0.855625 59.80625 0.515625 56.40625 C-0.969375 56.90125 -0.969375 56.90125 -2.484375 57.40625 C-2.154375 56.41625 -1.824375 55.42625 -1.484375 54.40625 C1.27797982 55.78742741 3.77804043 57.54023628 6.34765625 59.25 C12.12171633 62.32949871 19.15453057 61.88160352 25.515625 61.40625 C31.36136848 59.38681134 35.19497921 55.84387573 38.13671875 50.4140625 C40.12710626 45.56150157 39.95379789 40.70440795 39.890625 35.53125 C39.90222656 34.58894531 39.91382813 33.64664063 39.92578125 32.67578125 C39.89974596 26.40127694 38.884003 21.21659877 36.515625 15.40625 C33.95651496 15.9701217 32.30208045 16.53437673 30.015625 17.90625 C27.72916955 19.27812327 26.07473504 19.8423783 23.515625 20.40625 C23.41765625 21.10492188 23.3196875 21.80359375 23.21875 22.5234375 C23.06921875 23.43351562 22.9196875 24.34359375 22.765625 25.28125 C22.62640625 26.18617187 22.4871875 27.09109375 22.34375 28.0234375 C21.515625 30.40625 21.515625 30.40625 19.4375 31.7265625 C18.48617187 32.06300781 18.48617187 32.06300781 17.515625 32.40625 C17.515625 31.74625 17.515625 31.08625 17.515625 30.40625 C16.195625 31.06625 14.875625 31.72625 13.515625 32.40625 C14.010625 31.41625 14.010625 31.41625 14.515625 30.40625 C16.83719097 29.99895772 19.1725037 29.66186323 21.515625 29.40625 C21.515625 28.74625 21.515625 28.08625 21.515625 27.40625 C19.865625 27.40625 18.215625 27.40625 16.515625 27.40625 C16.515625 26.74625 16.515625 26.08625 16.515625 25.40625 C15.855625 25.40625 15.195625 25.40625 14.515625 25.40625 C15.010625 23.92125 15.010625 23.92125 15.515625 22.40625 C17.165625 22.07625 18.815625 21.74625 20.515625 21.40625 C19.1315314 16.87648913 17.23165695 15.23579444 13.515625 12.40625 C12.49726563 11.59027344 11.47890625 10.77429687 10.4296875 9.93359375 C9.33379509 9.0697264 8.23743446 8.20645272 7.140625 7.34375 C6.60179687 6.90998047 6.06296875 6.47621094 5.5078125 6.02929688 C-0.71421111 1.16278555 -6.6851732 -1.28984331 -14.63671875 -1.08203125 C-19.67100093 -0.21881414 -23.42634423 2.42841447 -27.484375 5.40625 Z " fill="#191911" transform="translate(173.484375,30.59375)"/>
<path d="M0 0 C1.98 0 3.96 0 6 0 C6 0.99 6 1.98 6 3 C16.65959477 3.9302617 27.17760645 4.08580753 37.8762207 3.97949219 C39.86145934 3.96157104 41.84674757 3.9494296 43.83203125 3.9375 C44.99452393 3.92589844 46.1570166 3.91429688 47.35473633 3.90234375 C50 4 50 4 51 5 C51.44325668 9.98921474 51.39355909 14.49447701 49 19 C48 20 48 20 45.71484375 20.09765625 C44.79832031 20.08605469 43.88179688 20.07445313 42.9375 20.0625 C42.01839844 20.05347656 41.09929687 20.04445313 40.15234375 20.03515625 C39.44207031 20.02355469 38.73179687 20.01195313 38 20 C37.67 21.32 37.34 22.64 37 24 C34.36 24 31.72 24 29 24 C29 22.68 29 21.36 29 20 C6.89 20 -15.22 20 -38 20 C-36.68 19.67 -35.36 19.34 -34 19 C-33.34 15.7 -32.68 12.4 -32 9 C-34.31 9 -36.62 9 -39 9 C-37.68 9.33 -36.36 9.66 -35 10 C-36.625 16.75 -36.625 16.75 -40 19 C-42.6875 19.125 -42.6875 19.125 -45 19 C-44.41509121 12.85845775 -43.45933748 6.99320151 -42 1 C-40.35 1 -38.7 1 -37 1 C-37 2.32 -37 3.64 -37 5 C-34.03 5 -31.06 5 -28 5 C-27.67 6.32 -27.34 7.64 -27 9 C-27 7.68 -27 6.36 -27 5 C-18.32685006 4.39739901 -9.70044116 3.8117693 -1 4 C-0.67 2.68 -0.34 1.36 0 0 Z " fill="#435F6A" transform="translate(187,106)"/>
<path d="M0 0 C2.6186749 1.53508528 3.42334418 3.38076069 4.8125 6.0625 C7.72146365 17.93169394 8.424379 29.91712019 2.8125 41.0625 C-0.96195258 45.68018134 -5.27398802 48.90298785 -11.1875 50.0625 C-12.52941406 50.12050781 -12.52941406 50.12050781 -13.8984375 50.1796875 C-16.74725608 50.30680014 -19.40284568 50.43920378 -22.1875 51.0625 C-24.30583745 53.88080246 -24.30583745 53.88080246 -25.1875 57.0625 C-28.44745586 59.23580391 -29.41729966 59.31171459 -33.1875 59.25 C-34.05375 59.24355469 -34.92 59.23710938 -35.8125 59.23046875 C-38.1875 59.0625 -38.1875 59.0625 -41.1875 58.0625 C-40.6925 62.5175 -40.6925 62.5175 -40.1875 67.0625 C-43.1575 67.0625 -46.1275 67.0625 -49.1875 67.0625 C-49.1875 68.3825 -49.1875 69.7025 -49.1875 71.0625 C-45.5575 71.0625 -41.9275 71.0625 -38.1875 71.0625 C-38.1875 71.3925 -38.1875 71.7225 -38.1875 72.0625 C-44.1275 72.5575 -44.1275 72.5575 -50.1875 73.0625 C-50.1875 71.0825 -50.1875 69.1025 -50.1875 67.0625 C-53.1575 67.0625 -56.1275 67.0625 -59.1875 67.0625 C-59.1875 65.7425 -59.1875 64.4225 -59.1875 63.0625 C-60.8375 63.0625 -62.4875 63.0625 -64.1875 63.0625 C-64.373125 65.0115625 -64.373125 65.0115625 -64.5625 67 C-65.08613328 71.78099952 -66.05063835 76.39364101 -67.1875 81.0625 C-65.5375 81.0625 -63.8875 81.0625 -62.1875 81.0625 C-61.6925 79.0825 -61.6925 79.0825 -61.1875 77.0625 C-60.8575 77.7225 -60.5275 78.3825 -60.1875 79.0625 C-59.1975 76.7525 -58.2075 74.4425 -57.1875 72.0625 C-58.1775 72.0625 -59.1675 72.0625 -60.1875 72.0625 C-60.6825 73.5475 -60.6825 73.5475 -61.1875 75.0625 C-61.1875 73.7425 -61.1875 72.4225 -61.1875 71.0625 C-58.8775 71.0625 -56.5675 71.0625 -54.1875 71.0625 C-54.61007655 74.48095511 -55.13619815 77.77649369 -56.1875 81.0625 C-58.3125 82.25 -58.3125 82.25 -61.1875 83.0625 C-63.25097928 84.8670001 -65.19273869 86.75527038 -67.125 88.69921875 C-69.1875 90.0625 -69.1875 90.0625 -71.703125 90.015625 C-74.68032006 88.87343067 -75.92958152 87.58159052 -77.9375 85.125 C-78.53046875 84.41472656 -79.1234375 83.70445313 -79.734375 82.97265625 C-82.31700229 79.57775102 -82.45278879 77.30712071 -82.1875 73.0625 C-81.5275 72.4025 -80.8675 71.7425 -80.1875 71.0625 C-83.1575 70.7325 -86.1275 70.4025 -89.1875 70.0625 C-89.31125 71.031875 -89.435 72.00125 -89.5625 73 C-91.30623508 85.18123508 -91.30623508 85.18123508 -93.1875 87.0625 C-99.98400447 87.76372665 -105.94405876 86.80733863 -112.1875 84.0625 C-113.1875 83.0625 -113.1875 83.0625 -113.3203125 81.171875 C-113.31773438 80.39328125 -113.31515625 79.6146875 -113.3125 78.8125 C-113.31121094 77.99652344 -113.30992188 77.18054688 -113.30859375 76.33984375 C-113.1875 74.0625 -113.1875 74.0625 -112.375 71.375 C-111.94693406 69.07130447 -111.94693406 69.07130447 -113.234375 67.5 C-114.52238871 65.99490533 -115.85332851 64.52683456 -117.1875 63.0625 C-117.1875 62.4025 -117.1875 61.7425 -117.1875 61.0625 C-113.32780806 62.34906398 -111.15624566 64.57430748 -109.1875 68.0625 C-109.375 70.9375 -109.375 70.9375 -110.1875 74.0625 C-110.34122787 76.75521727 -110.27908611 79.36070969 -110.1875 82.0625 C-108.17268266 84.07731734 -104.39673137 83.7839027 -101.625 84.125 C-100.91408203 84.21587891 -100.20316406 84.30675781 -99.47070312 84.40039062 C-97.71011597 84.62489503 -95.94886522 84.84418397 -94.1875 85.0625 C-94.21714844 84.14339844 -94.24679688 83.22429687 -94.27734375 82.27734375 C-94.16653682 78.31238285 -92.77334576 75.67822834 -91.1875 72.0625 C-90.7820897 69.74060464 -90.42677006 67.40734656 -90.1875 65.0625 C-89.8575 66.0525 -89.5275 67.0425 -89.1875 68.0625 C-86.93678094 67.9752395 -84.68686612 67.86705885 -82.4375 67.75 C-81.18453125 67.69199219 -79.9315625 67.63398437 -78.640625 67.57421875 C-75.15673537 67.05794099 -73.70860204 66.4371744 -71.1875 64.0625 C-71.1875 65.7125 -71.1875 67.3625 -71.1875 69.0625 C-72.97786458 70.07161458 -74.76822917 71.08072917 -76.55859375 72.08984375 C-78.16628146 72.9597513 -78.16628146 72.9597513 -79.1875 74.0625 C-79.57487548 77.22068618 -79.47527755 78.64184557 -77.65625 81.30078125 C-77.0065625 81.98527344 -76.356875 82.66976562 -75.6875 83.375 C-75.0378125 84.07238281 -74.388125 84.76976562 -73.71875 85.48828125 C-73.2134375 86.00777344 -72.708125 86.52726562 -72.1875 87.0625 C-68.92738358 86.36871489 -67.39711747 85.60356009 -65.1875 83.0625 C-66.5075 82.7325 -67.8275 82.4025 -69.1875 82.0625 C-68.52394956 75.31640382 -67.46884207 68.71801466 -66.1875 62.0625 C-63.5475 62.0625 -60.9075 62.0625 -58.1875 62.0625 C-58.1875 63.3825 -58.1875 64.7025 -58.1875 66.0625 C-55.5475 66.0625 -52.9075 66.0625 -50.1875 66.0625 C-49.678717 64.50283782 -49.18086531 62.93960759 -48.6875 61.375 C-48.4090625 60.50488281 -48.130625 59.63476562 -47.84375 58.73828125 C-47.17630667 56.01686052 -46.88218265 53.84852083 -47.1875 51.0625 C-49.59608714 49.2000562 -49.59608714 49.2000562 -52.1875 48.0625 C-51.6925 47.0725 -51.6925 47.0725 -51.1875 46.0625 C-46.46382379 48.53368246 -42.11581271 51.03021211 -38 54.4375 C-35.29834047 56.50537061 -34.43645228 57.03856228 -30.9375 57.375 C-26.92186935 55.45844901 -26.06894144 53.04247227 -24.1875 49.0625 C-24.8475 49.0625 -25.5075 49.0625 -26.1875 49.0625 C-26.5175 50.3825 -26.8475 51.7025 -27.1875 53.0625 C-29.5135857 53.44313221 -31.84805264 53.77519945 -34.1875 54.0625 C-35.77022601 52.47977399 -35.53485747 50.68215997 -35.75 48.5 C-35.83378906 47.67371094 -35.91757813 46.84742188 -36.00390625 45.99609375 C-36.06449219 45.35800781 -36.12507813 44.71992187 -36.1875 44.0625 C-36.8475 44.0625 -37.5075 44.0625 -38.1875 44.0625 C-37.8575 42.7425 -37.5275 41.4225 -37.1875 40.0625 C-34.1875 41.0625 -34.1875 41.0625 -32.74609375 42.51953125 C-28.43478426 46.78761959 -21.77831491 47.28657386 -16 47.4375 C-11.3387483 47.32482343 -8.1789326 46.62111064 -4.1875 44.0625 C-3.1975 43.7325 -2.2075 43.4025 -1.1875 43.0625 C-0.02827872 41.33107146 -0.02827872 41.33107146 0.8125 39.0625 C1.15667969 38.2478125 1.50085938 37.433125 1.85546875 36.59375 C3.16237164 31.77154504 3.10262832 27.22256726 3.0625 22.25 C3.07023437 21.30318359 3.07796875 20.35636719 3.0859375 19.38085938 C3.06922782 13.31106924 2.33455388 7.93931914 0.8125 2.0625 C0.20921875 2.4234375 -0.3940625 2.784375 -1.015625 3.15625 C-1.81484375 3.6203125 -2.6140625 4.084375 -3.4375 4.5625 C-4.22640625 5.0265625 -5.0153125 5.490625 -5.828125 5.96875 C-8.1875 7.0625 -8.1875 7.0625 -12.1875 7.0625 C-12.5175 13.3325 -12.8475 19.6025 -13.1875 26.0625 C-13.5175 26.0625 -13.8475 26.0625 -14.1875 26.0625 C-14.1875 23.0925 -14.1875 20.1225 -14.1875 17.0625 C-16.85485273 19.55202921 -18.74496343 21.69658134 -20.1875 25.0625 C-20.1875 23.0825 -20.1875 21.1025 -20.1875 19.0625 C-21.5075 19.7225 -22.8275 20.3825 -24.1875 21.0625 C-22.3125 17.1875 -22.3125 17.1875 -21.1875 16.0625 C-18.85452567 16.02157063 -16.52044775 16.02008277 -14.1875 16.0625 C-14.1875 15.4025 -14.1875 14.7425 -14.1875 14.0625 C-15.8375 14.0625 -17.4875 14.0625 -19.1875 14.0625 C-19.1875 13.4025 -19.1875 12.7425 -19.1875 12.0625 C-19.8475 12.0625 -20.5075 12.0625 -21.1875 12.0625 C-21.6825 10.5775 -21.6825 10.5775 -22.1875 9.0625 C-18.7225 8.5675 -18.7225 8.5675 -15.1875 8.0625 C-15.6825 6.5775 -15.6825 6.5775 -16.1875 5.0625 C-14.99125 4.98 -13.795 4.8975 -12.5625 4.8125 C-7.68787467 4.24408079 -4.58756799 0.13107337 0 0 Z " fill="#19170B" transform="translate(209.1875,43.9375)"/>
<path d="M0 0 C-0.14033111 1.97956441 -0.2874123 3.95865141 -0.4375 5.9375 C-0.51871094 7.03964844 -0.59992188 8.14179687 -0.68359375 9.27734375 C-1 12 -1 12 -2 13 C-4.14558827 13.08775605 -6.29404421 13.10695219 -8.44140625 13.09765625 C-9.74658203 13.09443359 -11.05175781 13.09121094 -12.39648438 13.08789062 C-13.7851569 13.07953401 -15.17382877 13.07106905 -16.5625 13.0625 C-17.95507656 13.05748666 -19.34765481 13.05292347 -20.74023438 13.04882812 C-24.1601987 13.03699434 -27.58007844 13.0205088 -31 13 C-30.85915204 11.20793453 -30.71216299 9.41635083 -30.5625 7.625 C-30.48128906 6.62726563 -30.40007812 5.62953125 -30.31640625 4.6015625 C-30 2 -30 2 -29 0 C-19.35009871 -1.50167611 -9.67258241 -0.96874862 0 0 Z " fill="#6397AE" transform="translate(221,111)"/>
<path d="M0 0 C3.85969194 1.28656398 6.03125434 3.51180748 8 7 C7.8125 9.875 7.8125 9.875 7 13 C6.84627213 15.69271727 6.90841389 18.29820969 7 21 C9.01481734 23.01481734 12.79076863 22.7214027 15.5625 23.0625 C16.27341797 23.15337891 16.98433594 23.24425781 17.71679688 23.33789062 C19.47738403 23.56239503 21.23863478 23.78168397 23 24 C22.97035156 23.08089844 22.94070312 22.16179687 22.91015625 21.21484375 C23.02096318 17.24988285 24.41415424 14.61572834 26 11 C26.4054103 8.67810464 26.76072994 6.34484656 27 4 C27.33 4.99 27.66 5.98 28 7 C30.25071906 6.9127395 32.50063388 6.80455885 34.75 6.6875 C36.00296875 6.62949219 37.2559375 6.57148437 38.546875 6.51171875 C42.03076463 5.99544099 43.47889796 5.3746744 46 3 C46 4.65 46 6.3 46 8 C43.31445312 9.51367188 43.31445312 9.51367188 40.62890625 11.02734375 C39.02121854 11.8972513 39.02121854 11.8972513 38 13 C37.61262452 16.15818618 37.71222245 17.57934557 39.53125 20.23828125 C40.1809375 20.92277344 40.830625 21.60726562 41.5 22.3125 C42.47453125 23.35857422 42.47453125 23.35857422 43.46875 24.42578125 C43.9740625 24.94527344 44.479375 25.46476562 45 26 C48.26011642 25.30621489 49.79038253 24.54106009 52 22 C50.68 21.67 49.36 21.34 48 21 C48.66355044 14.25390382 49.71865793 7.65551466 51 1 C53.64 1 56.28 1 59 1 C59 2.32 59 3.64 59 5 C61.64 5 64.28 5 67 5 C67.33 3.35 67.66 1.7 68 0 C68.99 1.485 68.99 1.485 70 3 C69.125 6.6875 69.125 6.6875 68 10 C71.63 10 75.26 10 79 10 C79 10.33 79 10.66 79 11 C75.04 11.33 71.08 11.66 67 12 C67 10.02 67 8.04 67 6 C64.03 6 61.06 6 58 6 C58 4.68 58 3.36 58 2 C56.35 2 54.7 2 53 2 C52.814375 3.9490625 52.814375 3.9490625 52.625 5.9375 C52.10136672 10.71849952 51.13686165 15.33114101 50 20 C51.65 20 53.3 20 55 20 C55.33 18.68 55.66 17.36 56 16 C56.495 16.99 56.495 16.99 57 18 C57.99 15.69 58.98 13.38 60 11 C59.01 11 58.02 11 57 11 C56.67 11.99 56.34 12.98 56 14 C56 12.68 56 11.36 56 10 C58.31 10 60.62 10 63 10 C62.57742345 13.41845511 62.05130185 16.71399369 61 20 C58.875 21.1875 58.875 21.1875 56 22 C53.93652072 23.8045001 51.99476131 25.69277038 50.0625 27.63671875 C48 29 48 29 45.484375 28.953125 C42.50717994 27.81093067 41.25791848 26.51909052 39.25 24.0625 C38.65703125 23.35222656 38.0640625 22.64195313 37.453125 21.91015625 C34.87049771 18.51525102 34.73471121 16.24462071 35 12 C35.66 11.34 36.32 10.68 37 10 C34.03 9.67 31.06 9.34 28 9 C27.87625 9.969375 27.7525 10.93875 27.625 11.9375 C25.88126492 24.11873508 25.88126492 24.11873508 24 26 C17.20349553 26.70122665 11.24344124 25.74483863 5 23 C4 22 4 22 3.8671875 20.109375 C3.86976562 19.33078125 3.87234375 18.5521875 3.875 17.75 C3.87628906 16.93402344 3.87757812 16.11804688 3.87890625 15.27734375 C4 13 4 13 4.8125 10.3125 C5.24056594 8.00880447 5.24056594 8.00880447 3.953125 6.4375 C2.66511129 4.93240533 1.33417149 3.46433456 0 2 C0 1.34 0 0.68 0 0 Z " fill="#14140B" transform="translate(92,105)"/>
<path d="M0 0 C0.66 0 1.32 0 2 0 C2.66 2.31 3.32 4.62 4 7 C3.67 7 3.34 7 3 7 C2.01 9.97 1.02 12.94 0 16 C1.98 15.67 3.96 15.34 6 15 C7.01300844 20.96811173 7.05124951 26.64630436 6.87304688 32.68359375 C6.79859791 37.52715563 7.45703525 41.40135996 9 46 C8.34 46 7.68 46 7 46 C7.44472656 46.51949219 7.88945313 47.03898437 8.34765625 47.57421875 C13.02744425 53.34133791 13.02744425 53.34133791 12.875 57 C12 59 12 59 10.375 59.75 C6.61641415 60.14564062 4.88366072 58.28289807 2 56 C-0.24690305 53.63164273 -1.73185566 51.5660825 -3.125 48.625 C-3 46 -3 46 -0.125 43.3125 C5.34607383 37.6894519 3.98448452 28.33106352 4 21 C2.57300781 20.83371094 2.57300781 20.83371094 1.1171875 20.6640625 C-2 20 -2 20 -3.875 17.375 C-5.1484132 13.5547604 -5.50007706 11.00061648 -5 7 C-3.50254139 4.39152371 -2.12971098 2.12971098 0 0 Z " fill="#171613" transform="translate(85,59)"/>
<path d="M0 0 C-2.03165889 6.46436919 -6.07533862 9.55093767 -11.8125 12.75 C-19.29524224 17.11679435 -25.31693653 23.07990545 -27.6015625 31.625 C-29.05040371 40.26122997 -27.68219273 47.74587117 -25 56 C-29.65117508 51.64848046 -30.85516377 47.24057262 -31.2578125 41.01171875 C-31.53215614 28.8743777 -30.64944689 18.95105038 -23 9 C-16.49616213 2.60366358 -9.07832007 -0.567395 0 0 Z " fill="#F1ECAB" transform="translate(122,53)"/>
<path d="M0 0 C0.33 0.66 0.66 1.32 1 2 C0.1796875 3.60058594 0.1796875 3.60058594 -1.125 5.484375 C-1.81335938 6.51691406 -1.81335938 6.51691406 -2.515625 7.5703125 C-3.49795142 9.0127813 -4.48745262 10.45039245 -5.484375 11.8828125 C-8.38090566 16.22581182 -8.38090566 16.22581182 -8.94140625 21.3359375 C-7.8275943 24.48788667 -6.24123583 26.54187038 -4 29 C-3.34 28.67 -2.68 28.34 -2 28 C-2.33 28.53625 -2.66 29.0725 -3 29.625 C-4.71255915 33.69232797 -4.46921415 36.80089717 -2.875 40.875 C-1.17084829 43.27635486 -1.17084829 43.27635486 1.67578125 43.34765625 C5.66436048 42.93051929 8.61371705 41.47184787 12.0625 39.5625 C15.97724091 37.43446538 19.52301276 35.60088109 24 35 C24.08948793 28.85516229 24.0322647 23.0645551 23 17 C22.91302635 13.33175856 22.9412509 9.66855511 23 6 C23.66 5.67 24.32 5.34 25 5 C25.60118784 9.92623826 26.18318547 14.85406273 26.74316406 19.78515625 C26.9690806 21.73336424 27.21354472 23.67940255 27.4609375 25.625 C27.57695312 26.65625 27.69296875 27.6875 27.8125 28.75 C27.92207031 29.65234375 28.03164062 30.5546875 28.14453125 31.484375 C27.95636347 34.75951157 27.02319473 36.43967392 25 39 C23.08984375 39.75 23.08984375 39.75 20.9375 40 C17.11550358 40.63389209 14.27517085 41.76658601 10.875 43.625 C6.7080948 45.79566689 3.77001504 46.93529707 -1 46 C-3.8125 44.25 -3.8125 44.25 -6 41 C-6.6659517 37.98614165 -7.0786196 34.99588518 -7.4609375 31.93359375 C-7.97865506 29.11615981 -8.62157345 27.53638982 -10.1875 25.1875 C-12 22 -12 22 -12.1875 18.6875 C-9.8875482 11.54554442 -4.75928188 5.71113826 0 0 Z " fill="#201E04" transform="translate(123,53)"/>
<path d="M0 0 C0.99 0 1.98 0 3 0 C5.77185142 6.8001913 6.46495011 12.81905178 6.375 20.125 C6.38660156 21.07503906 6.39820313 22.02507812 6.41015625 23.00390625 C6.38030731 30.17760085 5.41884987 35.12352988 0.6875 40.75 C-6.0296319 46.37364531 -11.52539117 46.3702499 -20 46 C-20 45.67 -20 45.34 -20 45 C-16.37 45 -12.74 45 -9 45 C-9 44.34 -9 43.68 -9 43 C-4.61538462 40 -4.61538462 40 -2 40 C3.43916391 29.3108605 4.83078989 17.77973858 2 6 C1.319375 6.66 0.63875 7.32 -0.0625 8 C-3.64457375 10.43885872 -5.75519536 10.33292585 -10 10 C-10 13.63 -10 17.26 -10 21 C-10.33 21 -10.66 21 -11 21 C-11.02692484 18.70839681 -11.04636124 16.41670454 -11.0625 14.125 C-11.07410156 12.84882812 -11.08570313 11.57265625 -11.09765625 10.2578125 C-11 7 -11 7 -10 5 C-8.22265625 4.21875 -8.22265625 4.21875 -6.0625 3.5 C-3.29544796 2.57597536 -2.10862631 2.10862631 0 0 Z " fill="#AA9C1A" transform="translate(207,46)"/>
<path d="M0 0 C0.99 0 1.98 0 3 0 C2.54775239 5.91492272 1.8417395 11.35199888 0 17 C-4.62 17 -9.24 17 -14 17 C-13.34 13.04 -12.68 9.08 -12 5 C-8.37 5 -4.74 5 -1 5 C-0.67 3.35 -0.34 1.7 0 0 Z " fill="#6CCFF6" transform="translate(188,107)"/>
<path d="M0 0 C4.62 0 9.24 0 14 0 C13.125 8.625 13.125 8.625 12 12 C8.37 12 4.74 12 1 12 C0.67 13.65 0.34 15.3 0 17 C-0.99 17 -1.98 17 -3 17 C-2.48517081 11.147205 -1.54642808 5.6702363 0 0 Z " fill="#6DD0F8" transform="translate(223,112)"/>
<path d="M0 0 C1.65 0 3.3 0 5 0 C5 1.32 5 2.64 5 4 C7.97 4 10.94 4 14 4 C13.85851011 5.6045556 13.71164314 7.20863767 13.5625 8.8125 C13.48128906 9.70582031 13.40007812 10.59914063 13.31640625 11.51953125 C13 14 13 14 12 17 C11.01 17 10.02 17 9 17 C8.875 10.25 8.875 10.25 10 8 C7.69 8 5.38 8 3 8 C4.32 8.33 5.64 8.66 7 9 C5.375 15.75 5.375 15.75 2 18 C-0.6875 18.125 -0.6875 18.125 -3 18 C-2.41509121 11.85845775 -1.45933748 5.99320151 0 0 Z " fill="#68C7ED" transform="translate(145,107)"/>
<path d="M0 0 C1.93166016 0.01740234 1.93166016 0.01740234 3.90234375 0.03515625 C5.19269531 0.04417969 6.48304688 0.05320312 7.8125 0.0625 C8.81152344 0.07410156 9.81054688 0.08570312 10.83984375 0.09765625 C10.17984375 4.05765625 9.51984375 8.01765625 8.83984375 12.09765625 C4.21984375 12.09765625 -0.40015625 12.09765625 -5.16015625 12.09765625 C-4.19721755 0.12970388 -4.19721755 0.12970388 0 0 Z " fill="#6CCDF5" transform="translate(195.16015625,111.90234375)"/>
<path d="M0 0 C5.14887381 2.38451943 9.86548161 4.73822893 14.25 8.375 C16.93577142 10.45972177 17.74627678 10.97560354 21.25 11.3125 C25.26563065 9.39594901 26.11855856 6.97997227 28 3 C29.32 3.33 30.64 3.66 32 4 C31.01 4.495 31.01 4.495 30 5 C29.525625 5.969375 29.05125 6.93875 28.5625 7.9375 C27 11 27 11 24 13 C21.625 13.23046875 21.625 13.23046875 19 13.1875 C18.13375 13.18105469 17.2675 13.17460938 16.375 13.16796875 C14 13 14 13 11 12 C11.33 14.97 11.66 17.94 12 21 C9.36 21 6.72 21 4 21 C3.90247539 15.53862186 4.22750855 10.40744018 5 5 C3.7625 4.319375 3.7625 4.319375 2.5 3.625 C1.675 3.08875 0.85 2.5525 0 2 C0 1.34 0 0.68 0 0 Z " fill="#211E14" transform="translate(157,90)"/>
<path d="M0 0 C5.13432997 5.13432997 5.20317134 15.16307788 5.25 22.0625 C5.1983078 25.54741615 4.99490855 28.65421881 4 32 C3.38253906 32.02578125 2.76507813 32.0515625 2.12890625 32.078125 C-2.55142207 32.39157165 -6.28971833 32.93099783 -10.5 35.0625 C-15.34253156 37.46210866 -19.68978909 37.39909727 -25 37 C-25 36.67 -25 36.34 -25 36 C-23.88625 35.773125 -22.7725 35.54625 -21.625 35.3125 C-17.16492708 34.22313706 -13.43931934 32.23353367 -9.40234375 30.09375 C-7.1310908 29.05968361 -5.46217547 28.64225472 -3 28.4375 C-1.515 28.2209375 -1.515 28.2209375 0 28 C2.38967274 24.72096685 2.09762064 21.98088157 1.6875 18.0625 C1.53861328 16.53302734 1.53861328 16.53302734 1.38671875 14.97265625 C1.04198534 12.04409387 1.04198534 12.04409387 0.4609375 9.359375 C-0.15204556 6.22173289 -0.06250108 3.18755524 0 0 Z " fill="#CFBA1F" transform="translate(148,63)"/>
<path d="M0 0 C3.85969194 1.28656398 6.03125434 3.51180748 8 7 C7.8125 9.875 7.8125 9.875 7 13 C6.84627213 15.69271727 6.90841389 18.29820969 7 21 C9.01481734 23.01481734 12.79076863 22.7214027 15.5625 23.0625 C16.27341797 23.15337891 16.98433594 23.24425781 17.71679688 23.33789062 C19.47738403 23.56239503 21.23863478 23.78168397 23 24 C22.97035156 23.08089844 22.94070312 22.16179687 22.91015625 21.21484375 C23.02096318 17.24988285 24.41415424 14.61572834 26 11 C26.4054103 8.67810464 26.76072994 6.34484656 27 4 C27.33 4.99 27.66 5.98 28 7 C31.96 7 35.92 7 40 7 C40 7.33 40 7.66 40 8 C36.37 8.33 32.74 8.66 29 9 C27.08440831 14.4136287 25.71019408 19.31844739 25 25 C23.39739862 26.60260138 21.71501415 26.20898122 19.5 26.25 C14.6058473 26.21479027 7.678932 25.678932 4 22 C3.90068381 20.58620481 3.87030705 19.16727151 3.875 17.75 C3.87628906 16.93402344 3.87757812 16.11804688 3.87890625 15.27734375 C4 13 4 13 4.8125 10.3125 C5.24056594 8.00880447 5.24056594 8.00880447 3.953125 6.4375 C2.66511129 4.93240533 1.33417149 3.46433456 0 2 C0 1.34 0 0.68 0 0 Z " fill="#13120A" transform="translate(92,105)"/>
<path d="M0 0 C3.96930989 -0.02465881 7.93859034 -0.04284023 11.90795898 -0.05493164 C13.25920386 -0.05997057 14.61044326 -0.06680177 15.96166992 -0.07543945 C17.90020434 -0.08752419 19.838778 -0.09269828 21.77734375 -0.09765625 C23.52905884 -0.10551147 23.52905884 -0.10551147 25.31616211 -0.11352539 C28 0 28 0 29 1 C29.44325668 5.98921474 29.39355909 10.49447701 27 15 C26 16 26 16 23.71484375 16.09765625 C22.34005859 16.08025391 22.34005859 16.08025391 20.9375 16.0625 C20.01839844 16.05347656 19.09929687 16.04445313 18.15234375 16.03515625 C17.44207031 16.02355469 16.73179687 16.01195313 16 16 C15.67 17.32 15.34 18.64 15 20 C12.36 20 9.72 20 7 20 C7.33 18.35 7.66 16.7 8 15 C8.66 15 9.32 15 10 15 C10.66 10.38 11.32 5.76 12 1 C8.04 1 4.08 1 0 1 C0 0.67 0 0.34 0 0 Z M14 2 C13.505 4.0625 13.01 6.125 12.5 8.25 C12.2215625 9.41015625 11.943125 10.5703125 11.65625 11.765625 C10.86743548 15.10330712 10.86743548 15.10330712 11 19 C11.99 19 12.98 19 14 19 C14.33 17.35 14.66 15.7 15 14 C18.63 14 22.26 14 26 14 C26.33 12.7625 26.66 11.525 27 10.25 C27.185625 9.55390625 27.37125 8.8578125 27.5625 8.140625 C28.13349349 5.71098139 28.13349349 5.71098139 28 2 C23.38 2 18.76 2 14 2 Z " fill="#435E69" transform="translate(209,110)"/>
<path d="M0 0 C4.95 0 9.9 0 15 0 C14.34 3.3 13.68 6.6 13 10 C12.01 9.67 11.02 9.34 10 9 C10 8.34 10 7.68 10 7 C7.69 7.33 5.38 7.66 3 8 C3 8.33 3 8.66 3 9 C7.455 9.99 7.455 9.99 12 11 C12 11.33 12 11.66 12 12 C7.38 12 2.76 12 -2 12 C-1.44549838 7.96005961 -0.80044424 4.00222119 0 0 Z " fill="#63BEE2" transform="translate(160,112)"/>
<path d="M0 0 C0.66 0.99 1.32 1.98 2 3 C2.48597656 3.69996094 2.97195312 4.39992188 3.47265625 5.12109375 C4.25962891 6.26771484 4.25962891 6.26771484 5.0625 7.4375 C5.58972656 8.19933594 6.11695312 8.96117188 6.66015625 9.74609375 C7.92899336 11.88055151 8.55265052 13.5754763 9 16 C6.9375 16.8125 6.9375 16.8125 4 17 C0.53638642 15.27562586 -2.22608753 13.06412964 -4.5 9.9375 C-5.1383362 7.46394723 -5.02697888 6.3473803 -4 4 C-1.9375 1.75 -1.9375 1.75 0 0 Z " fill="#E9DE11" transform="translate(89,100)"/>
<path d="M0 0 C0 0.99 0 1.98 0 3 C-0.763125 3.53625 -1.52625 4.0725 -2.3125 4.625 C-5.98710791 7.87232792 -6.77990192 11.35767559 -8 16 C-8.66 16 -9.32 16 -10 16 C-10 14.35 -10 12.7 -10 11 C-11.175625 12.2065625 -11.175625 12.2065625 -12.375 13.4375 C-15 16 -15 16 -17 17 C-16.05803912 11.47713463 -14.32953635 6.55063771 -11 2 C-7.47378859 0.0822359 -3.9812254 0 0 0 Z " fill="#C2AF1C" transform="translate(148,47)"/>
<path d="M0 0 C0.66 0.33 1.32 0.66 2 1 C2.08172936 3.5215021 2.14083373 6.04029917 2.1875 8.5625 C2.21263672 9.26697266 2.23777344 9.97144531 2.26367188 10.69726562 C2.35290594 17.15186281 0.92942589 21.70554759 -3.3125 26.75 C-10.0296319 32.37364531 -15.52539117 32.3702499 -24 32 C-24 31.67 -24 31.34 -24 31 C-20.37 31 -16.74 31 -13 31 C-13 30.34 -13 29.68 -13 29 C-8.61538462 26 -8.61538462 26 -6 26 C-1.61908594 17.48471682 -0.42782543 9.54493278 0 0 Z " fill="#C8B41D" transform="translate(211,60)"/>
<path d="M0 0 C4.29 0 8.58 0 13 0 C12.125 10.875 12.125 10.875 11 12 C8.64686445 12.07271741 6.29166332 12.08370868 3.9375 12.0625 C2.64714844 12.05347656 1.35679687 12.04445313 0.02734375 12.03515625 C-0.97167969 12.02355469 -1.97070312 12.01195313 -3 12 C-2.34 8.7 -1.68 5.4 -1 2 C1 5 1 5 1 9 C3.64 9 6.28 9 9 9 C9.33 6.69 9.66 4.38 10 2 C6.7 1.67 3.4 1.34 0 1 C0 0.67 0 0.34 0 0 Z " fill="#69C9F0" transform="translate(208,112)"/>
<path d="M0 0 C0.66 0.33 1.32 0.66 2 1 C1.5153125 1.49886719 1.030625 1.99773438 0.53125 2.51171875 C-5.33110397 8.79120175 -9.69836579 15.58634282 -14 23 C-14.45890625 23.78761719 -14.9178125 24.57523438 -15.390625 25.38671875 C-16.27250104 26.91758102 -17.13896803 28.45731773 -18 30 C-18.66 29.67 -19.32 29.34 -20 29 C-19.52668837 23.50620429 -17.53260885 20.05879378 -14.5 15.625 C-13.83701904 14.63971313 -13.83701904 14.63971313 -13.16064453 13.63452148 C-9.43918778 8.27755802 -5.21568252 3.94325756 0 0 Z " fill="#F0EAA4" transform="translate(133,46)"/>
<path d="M0 0 C3 1 3 1 4.39453125 2.45703125 C6.37128685 4.35683286 8.07850287 4.89345739 10.6875 5.6875 C11.49574219 5.93886719 12.30398437 6.19023438 13.13671875 6.44921875 C13.75160156 6.63097656 14.36648437 6.81273438 15 7 C14.35546875 7.28617187 13.7109375 7.57234375 13.046875 7.8671875 C10.80115872 8.81418662 10.80115872 8.81418662 10.25 11.125 C10.1675 11.74375 10.085 12.3625 10 13 C7.6739143 13.38063221 5.33944736 13.71269945 3 14 C1.41727399 12.41727399 1.65264253 10.61965997 1.4375 8.4375 C1.35371094 7.61121094 1.26992187 6.78492187 1.18359375 5.93359375 C1.12300781 5.29550781 1.06242188 4.65742187 1 4 C0.34 4 -0.32 4 -1 4 C-0.67 2.68 -0.34 1.36 0 0 Z " fill="#35301E" transform="translate(172,84)"/>
<path d="M0 0 C2.067714 3.33303152 2.10526716 5.20908609 1.25 9 C1.06953125 9.845625 0.8890625 10.69125 0.703125 11.5625 C0.02781159 13.90358649 -0.9002004 15.83616664 -2 18 C-2.38290462 19.99110401 -2.72604615 21.99100513 -3 24 C-5.64 24 -8.28 24 -11 24 C-8.82442748 15.56302365 -8.82442748 15.56302365 -5.4375 13.25 C-4.2309375 12.63125 -4.2309375 12.63125 -3 12 C-0.89501097 8.21101975 -0.50209286 4.26778927 0 0 Z " fill="#C3AF1F" transform="translate(118,105)"/>
<path d="M0 0 C0.33 0 0.66 0 1 0 C1.60118784 4.92623826 2.18318547 9.85406273 2.74316406 14.78515625 C2.9690806 16.73336424 3.21354472 18.67940255 3.4609375 20.625 C3.57695312 21.65625 3.69296875 22.6875 3.8125 23.75 C3.92207031 24.65234375 4.03164062 25.5546875 4.14453125 26.484375 C3.95867032 29.71935986 2.95618282 31.44786381 1 34 C-1.6875 34.3125 -1.6875 34.3125 -4 34 C-4.495 32.515 -4.495 32.515 -5 31 C-3.35 30.67 -1.7 30.34 0 30 C0.08948793 23.85516229 0.0322647 18.0645551 -1 12 C-1.13473371 8.33109754 -1.21236246 4.66637542 -1 1 C-0.67 0.67 -0.34 0.34 0 0 Z " fill="#3D3A06" transform="translate(147,58)"/>
<path d="M0 0 C0.06058594 0.61488281 0.12117187 1.22976562 0.18359375 1.86328125 C0.26738281 2.67152344 0.35117188 3.47976562 0.4375 4.3125 C0.51871094 5.11300781 0.59992188 5.91351563 0.68359375 6.73828125 C0.95265693 9.16087179 0.95265693 9.16087179 2 12 C0.824375 11.67 -0.35125 11.34 -1.5625 11 C-5.5011676 10.0030467 -8.95139129 9.83130797 -13 10 C-11.74641445 6.23924335 -10.29326113 5.52350869 -7.0625 3.3125 C-6.16660156 2.68988281 -5.27070313 2.06726562 -4.34765625 1.42578125 C-2 0 -2 0 0 0 Z " fill="#ECE7A8" transform="translate(154,32)"/>
<path d="M0 0 C0 0.99 0 1.98 0 3 C-1.46628263 4.1859028 -2.93481284 5.36922827 -4.41894531 6.53271484 C-7.08353019 9.00556152 -8.39270634 12.0413474 -9.875 15.3125 C-10.18179688 15.95767578 -10.48859375 16.60285156 -10.8046875 17.26757812 C-11.5496043 18.83888701 -12.27671527 20.41861711 -13 22 C-13.66 21.34 -14.32 20.68 -15 20 C-16.65 20 -18.3 20 -20 20 C-19.34 16.7 -18.68 13.4 -18 10 C-17.34 10.33 -16.68 10.66 -16 11 C-16.33 13.31 -16.66 15.62 -17 18 C-13.75838194 15.04440707 -11.39323078 12.16420938 -9.0625 8.4375 C-6.48284655 4.41726086 -4.16959751 2.28335102 0 0 Z " fill="#191911" transform="translate(105,55)"/>
<path d="M0 0 C0.66 0.33 1.32 0.66 2 1 C1.16522173 8.35967782 -1.28359387 13.20632084 -7 18 C-12.16528073 21.12856435 -18.06022629 21.85970409 -24 21 C-26.265625 19.98046875 -26.265625 19.98046875 -28 19 C-26.58847656 18.94392578 -26.58847656 18.94392578 -25.1484375 18.88671875 C-23.90320313 18.82097656 -22.65796875 18.75523438 -21.375 18.6875 C-19.53035156 18.60048828 -19.53035156 18.60048828 -17.6484375 18.51171875 C-13.83015392 17.97617791 -11.34378035 16.86351082 -8 15 C-7.01 14.67 -6.02 14.34 -5 14 C-3.19517391 11.117472 -2.31605396 8.00091367 -1.375 4.75 C-1.11460937 3.85796875 -0.85421875 2.9659375 -0.5859375 2.046875 C-0.39257812 1.37140625 -0.19921875 0.6959375 0 0 Z " fill="#121109" transform="translate(213,73)"/>
<path d="M0 0 C0.33 0.66 0.66 1.32 1 2 C0.1796875 3.60058594 0.1796875 3.60058594 -1.125 5.484375 C-1.81335938 6.51691406 -1.81335938 6.51691406 -2.515625 7.5703125 C-3.49795142 9.0127813 -4.48745262 10.45039245 -5.484375 11.8828125 C-8.38288503 16.21078054 -8.38288503 16.21078054 -8.91015625 21.3046875 C-7.87290802 24.37636679 -6.55627506 27.15810642 -5 30 C-8.01319894 28.96096588 -9.00046911 27.99930443 -10.8125 25.3125 C-12.32074755 21.10528316 -12.29062064 19.30206879 -11 15 C-7.8049427 9.67768523 -3.97071094 4.76485313 0 0 Z " fill="#1C1C0F" transform="translate(123,53)"/>
<path d="M0 0 C0.66 0 1.32 0 2 0 C2 1.32 2 2.64 2 4 C4.64 3.67 7.28 3.34 10 3 C10.33 2.01 10.66 1.02 11 0 C11.66 0 12.32 0 13 0 C12.67 1.98 12.34 3.96 12 6 C8.37 6 4.74 6 1 6 C0.67 7.65 0.34 9.3 0 11 C-0.99 11 -1.98 11 -3 11 C-2.67 8.03 -2.34 5.06 -2 2 C-1.34 2 -0.68 2 0 2 C0 1.34 0 0.68 0 0 Z " fill="#6CCFF6" transform="translate(223,118)"/>
<path d="M0 0 C0.66 0 1.32 0 2 0 C3.3899408 2.7798816 3.18488204 4.9186326 3 8 C2 10.375 2 10.375 1 12 C2.98 11.67 4.96 11.34 7 11 C6.67 12.32 6.34 13.64 6 15 C4.35 15 2.7 15 1 15 C-3.03474903 8.76447876 -3.03474903 8.76447876 -2.875 5.25 C-2 3 -2 3 0 0 Z " fill="#EFE711" transform="translate(84,63)"/>
<path d="M0 0 C4.76708675 7.15063013 4.34043421 17.62153591 4 26 C3.01 26 2.02 26 1 26 C0.90912109 24.17275391 0.90912109 24.17275391 0.81640625 22.30859375 C0.73193597 20.68488723 0.64729128 19.06118978 0.5625 17.4375 C0.50352539 16.23770508 0.50352539 16.23770508 0.44335938 15.01367188 C0.24609317 11.29596272 -0.0119904 7.65116421 -0.59765625 3.97265625 C-0.73042969 2.99167969 -0.86320313 2.01070312 -1 1 C-0.67 0.67 -0.34 0.34 0 0 Z " fill="#393722" transform="translate(212,47)"/>
<path d="M0 0 C0.66 0 1.32 0 2 0 C1.08486681 2.28783297 0.34515354 3.73449728 -1.625 5.25 C-4.4115286 6.1299564 -6.8667157 5.96377746 -9.76171875 5.87109375 C-13.72878165 6.09956334 -17.32342923 7.57022248 -21 9 C-21 8.01 -21 7.02 -21 6 C-15.35995762 3.11439692 -9.96085809 2.24320936 -3.6953125 1.4296875 C-1.08889375 1.28454961 -1.08889375 1.28454961 0 0 Z " fill="#383830" transform="translate(127,48)"/>
<path d="M0 0 C0.66 0 1.32 0 2 0 C1.0022242 2.99332739 0.2477975 3.94766315 -2 6 C-0.906875 5.79375 0.18625 5.5875 1.3125 5.375 C5 5 5 5 8 7 C6.62328125 7.14695312 6.62328125 7.14695312 5.21875 7.296875 C-2.02825101 8.17991294 -7.72075995 9.23245597 -14 13 C-14 12.01 -14 11.02 -14 10 C-13.48050781 9.76925781 -12.96101562 9.53851563 -12.42578125 9.30078125 C-7.77314205 7.12496292 -4.47073537 4.89143056 -1 1 C-0.67 0.67 -0.34 0.34 0 0 Z " fill="#201F19" transform="translate(143,36)"/>
<path d="M0 0 C3.96 0 7.92 0 12 0 C11.67 0.66 11.34 1.32 11 2 C8.67843403 2.40729228 6.3431213 2.74438677 4 3 C4 3.33 4 3.66 4 4 C8.455 4.99 8.455 4.99 13 6 C13 6.33 13 6.66 13 7 C8.38 7 3.76 7 -1 7 C-0.67 4.69 -0.34 2.38 0 0 Z " fill="#6CCFF6" transform="translate(159,117)"/>
<path d="M0 0 C1.93166016 0.01740234 1.93166016 0.01740234 3.90234375 0.03515625 C5.19269531 0.04417969 6.48304688 0.05320312 7.8125 0.0625 C8.81152344 0.07410156 9.81054688 0.08570312 10.83984375 0.09765625 C7.20367719 2.07663185 3.95558746 2.62276275 -0.16015625 3.09765625 C-0.49015625 5.73765625 -0.82015625 8.37765625 -1.16015625 11.09765625 C-2.48015625 11.09765625 -3.80015625 11.09765625 -5.16015625 11.09765625 C-5.01972748 9.45135297 -4.87266296 7.80561446 -4.72265625 6.16015625 C-4.64144531 5.24363281 -4.56023437 4.32710938 -4.4765625 3.3828125 C-3.985646 -0.16269559 -3.70665868 0.11454446 0 0 Z " fill="#69C9EF" transform="translate(195.16015625,111.90234375)"/>
<path d="M0 0 C2.31 0 4.62 0 7 0 C7.38133299 1.9914056 7.71325582 3.99279077 8 6 C7 7 7 7 5.15234375 7.09765625 C3.1015625 7.06510417 1.05078125 7.03255208 -1 7 C-0.67 4.69 -0.34 2.38 0 0 Z " fill="#85A2AD" transform="translate(179,115)"/>
<path d="M0 0 C0.66 0.99 1.32 1.98 2 3 C2.99 2.67 3.98 2.34 5 2 C5.33 1.34 5.66 0.68 6 0 C6.99 0 7.98 0 9 0 C7.375 6.75 7.375 6.75 4 9 C1.3125 9.125 1.3125 9.125 -1 9 C-0.67 6.03 -0.34 3.06 0 0 Z " fill="#58A8C9" transform="translate(143,116)"/>
<path d="M0 0 C0.33 0.99 0.66 1.98 1 3 C1.66 3 2.32 3 3 3 C2.96519531 3.88300781 2.93039063 4.76601562 2.89453125 5.67578125 C2.71437058 13.66290428 3.40647489 20.43555175 6 28 C2.05545402 24.30958443 0.21312234 20.36313507 -0.12890625 14.96582031 C-0.25773435 9.97373128 -0.15311588 4.99044362 0 0 Z " fill="#E6E094" transform="translate(91,81)"/>
<path d="M0 0 C2.64 0 5.28 0 8 0 C7.125 5.875 7.125 5.875 6 7 C4.00041636 7.04080783 1.99954746 7.04254356 0 7 C-1.33332095 4.3333581 -0.67102033 2.83319697 0 0 Z " fill="#7A888E" transform="translate(194,115)"/>
<path d="M0 0 C0.33 0.99 0.66 1.98 1 3 C0.319375 3.556875 -0.36125 4.11375 -1.0625 4.6875 C-3.24809916 6.80885324 -3.24809916 6.80885324 -3.0625 9.4375 C-1.63579992 12.87836491 0.12796344 14.63854772 3 17 C6.16701423 18.33563611 6.16701423 18.33563611 9 19 C8.67 19.66 8.34 20.32 8 21 C3.44997133 20.72424069 0.7805897 18.72991098 -2.4609375 15.73828125 C-5.01335118 12.85547899 -5.79797156 10.83854045 -6 7 C-4.33570887 4.29486648 -2.31996528 2.15612592 0 0 Z " fill="#222023" transform="translate(88,98)"/>
<path d="M0 0 C0.12375 0.639375 0.2475 1.27875 0.375 1.9375 C0.58125 2.618125 0.7875 3.29875 1 4 C1.66 4.33 2.32 4.66 3 5 C0.69 6.32 -1.62 7.64 -4 9 C-3.67 8.01 -3.34 7.02 -3 6 C-3.928125 6.309375 -3.928125 6.309375 -4.875 6.625 C-5.57625 6.74875 -6.2775 6.8725 -7 7 C-7.66 6.34 -8.32 5.68 -9 5 C-4.5 0 -4.5 0 0 0 Z " fill="#2B261F" transform="translate(174,56)"/>
<path d="M0 0 C1.4540625 0.0309375 1.4540625 0.0309375 2.9375 0.0625 C2.98004356 2.06204746 2.97830783 4.06291636 2.9375 6.0625 C1.9375 7.0625 1.9375 7.0625 -1.125 7.125 C-2.5790625 7.0940625 -2.5790625 7.0940625 -4.0625 7.0625 C-4.10504356 5.06295254 -4.10330783 3.06208364 -4.0625 1.0625 C-3.0625 0.0625 -3.0625 0.0625 0 0 Z " fill="#83969D" transform="translate(229.0625,114.9375)"/>
<path d="M0 0 C0.33 0 0.66 0 1 0 C1 1.65 1 3.3 1 5 C-0.093125 5.5775 -1.18625 6.155 -2.3125 6.75 C-5.29669132 8.44144447 -7.18944814 10.01791458 -9 13 C-9.625 11.125 -9.625 11.125 -10 9 C-9.34 8.34 -8.68 7.68 -8 7 C-10.64 6.67 -13.28 6.34 -16 6 C-16 5.67 -16 5.34 -16 5 C-15.26394531 4.97421875 -14.52789062 4.9484375 -13.76953125 4.921875 C-6.09945054 4.48058859 -6.09945054 4.48058859 0 0 Z " fill="#38362B" transform="translate(137,108)"/>
<path d="M0 0 C0.33 1.32 0.66 2.64 1 4 C2.65 4 4.3 4 6 4 C4.35 5.98 2.7 7.96 1 10 C-1.88575819 9.60196439 -2.82189513 9.20990931 -4.75 6.9375 C-5.1625 6.298125 -5.575 5.65875 -6 5 C-4.35 4.67 -2.7 4.34 -1 4 C-0.67 2.68 -0.34 1.36 0 0 Z " fill="#CAB420" transform="translate(139,122)"/>
<path d="M0 0 C-0.928125 1.1446875 -0.928125 1.1446875 -1.875 2.3125 C-4.05597052 4.99625809 -4.05597052 4.99625809 -6 8 C-6.33 7.01 -6.66 6.02 -7 5 C-8.32 6.98 -9.64 8.96 -11 11 C-12 8 -12 8 -11.29296875 6.2109375 C-10.74576172 5.30214844 -10.74576172 5.30214844 -10.1875 4.375 C-9.83042969 3.76398437 -9.47335938 3.15296875 -9.10546875 2.5234375 C-6.7242997 -0.75803221 -3.73826615 -0.08126666 0 0 Z " fill="#100F01" transform="translate(145,48)"/>
<path d="M0 0 C0.33 0 0.66 0 1 0 C1.125 6.75 1.125 6.75 0 9 C-4.62 9 -9.24 9 -14 9 C-10.96474514 6.97649676 -9.80573798 6.67875982 -6.3125 6.375 C-5.50425781 6.30023438 -4.69601563 6.22546875 -3.86328125 6.1484375 C-2.94095703 6.07496094 -2.94095703 6.07496094 -2 6 C-1.855625 5.195625 -1.71125 4.39125 -1.5625 3.5625 C-1 1 -1 1 0 0 Z " fill="#6DD1F9" transform="translate(188,115)"/>
<path d="M0 0 C0.66 0 1.32 0 2 0 C1.15612753 3.16452176 0.46488666 5.48530406 -1.75 7.9375 C-4.80749986 9.38131938 -6.78528774 8.80367806 -10 8 C-9.4375 6.0625 -9.4375 6.0625 -8 4 C-4.375 3.25 -4.375 3.25 -1 3 C-0.67 2.01 -0.34 1.02 0 0 Z " fill="#C5BF0F" transform="translate(183,93)"/>
<path d="M0 0 C0.33 0 0.66 0 1 0 C1.66 6.93 2.32 13.86 3 21 C2.34 21 1.68 21 1 21 C-0.76550837 14.26899933 -1.5351004 7.96874933 -1 1 C-0.67 0.67 -0.34 0.34 0 0 Z " fill="#322F0E" transform="translate(147,58)"/>
<path d="M0 0 C1.65 0.99 3.3 1.98 5 3 C4.50341703 8.66104589 3.45489316 12.87674471 1 18 C0.34 18 -0.32 18 -1 18 C-0.67 17.195625 -0.34 16.39125 0 15.5625 C1.47770008 10.29819348 1.739113 5.21733901 0 0 Z " fill="#CEB81F" transform="translate(158,92)"/>
<path d="M0 0 C0.99 0 1.98 0 3 0 C2.67 3.3 2.34 6.6 2 10 C1.01 10 0.02 10 -1 10 C-1.33 9.34 -1.66 8.68 -2 8 C-4.31 8 -6.62 8 -9 8 C-9 7.67 -9 7.34 -9 7 C-6.36 7 -3.72 7 -1 7 C-0.67 4.69 -0.34 2.38 0 0 Z " fill="#65C1E5" transform="translate(188,107)"/>
<path d="M0 0 C0.66 0.99 1.32 1.98 2 3 C1.125 6.6875 1.125 6.6875 0 10 C3.63 10 7.26 10 11 10 C11 10.33 11 10.66 11 11 C5.06 11.495 5.06 11.495 -1 12 C-1 10.02 -1 8.04 -1 6 C-3.97 6 -6.94 6 -10 6 C-9.67 5.01 -9.34 4.02 -9 3 C-9 3.66 -9 4.32 -9 5 C-6.36 5 -3.72 5 -1 5 C-0.67 3.35 -0.34 1.7 0 0 Z " fill="#1E1D08" transform="translate(160,105)"/>
<path d="M0 0 C0 0.99 0 1.98 0 3 C-1.45455492 4.19009039 -2.91286709 5.3762027 -4.3984375 6.52734375 C-7.03884411 8.95522983 -8.38042894 11.82314907 -10 15 C-10.66 14.34 -11.32 13.68 -12 13 C-8.61681985 7.3853606 -5.80933377 3.18130183 0 0 Z " fill="#181716" transform="translate(105,55)"/>
<path d="M0 0 C0.66 0.33 1.32 0.66 2 1 C2.59355614 3.64860427 2.74209269 6.29197322 3 9 C1.02 9 -0.96 9 -3 9 C-2.01 6.03 -1.02 3.06 0 0 Z " fill="#E2DB0E" transform="translate(164,101)"/>
<path d="M0 0 C0.66 0.33 1.32 0.66 2 1 C2.08075665 3.29109597 2.13907731 5.58299267 2.1875 7.875 C2.22230469 9.15117188 2.25710937 10.42734375 2.29296875 11.7421875 C2.19628906 12.81726563 2.09960938 13.89234375 2 15 C1.01 15.66 0.02 16.32 -1 17 C-0.67 11.39 -0.34 5.78 0 0 Z " fill="#DAC41F" transform="translate(211,60)"/>
<path d="M0 0 C0.99 0.33 1.98 0.66 3 1 C2.67 1.66 2.34 2.32 2 3 C3.32 2.01 4.64 1.02 6 0 C6.66 0.33 7.32 0.66 8 1 C4.04 4.465 4.04 4.465 0 8 C-0.66 6.68 -1.32 5.36 -2 4 C-1.125 1.75 -1.125 1.75 0 0 Z " fill="#C3BA3F" transform="translate(169,61)"/>
<path d="M0 0 C3.84509998 1.28169999 6.06270495 3.50322263 8 7 C7.8125 10.375 7.8125 10.375 7 13 C6.34 13 5.68 13 5 13 C5.103125 12.29875 5.20625 11.5975 5.3125 10.875 C4.85991027 6.71117452 2.75904615 5.10392692 0 2 C0 1.34 0 0.68 0 0 Z " fill="#141307" transform="translate(92,105)"/>
<path d="M0 0 C0.66 0.33 1.32 0.66 2 1 C-0.99481865 5.22797927 -0.99481865 5.22797927 -3 7 C-6.3125 7.375 -6.3125 7.375 -9 7 C-9 6.01 -9 5.02 -9 4 C-8.43410156 3.79503906 -7.86820313 3.59007812 -7.28515625 3.37890625 C-6.55167969 3.10949219 -5.81820312 2.84007812 -5.0625 2.5625 C-4.33160156 2.29566406 -3.60070312 2.02882812 -2.84765625 1.75390625 C-1.01694322 1.14613052 -1.01694322 1.14613052 0 0 Z " fill="#EEE50E" transform="translate(206,47)"/>
<path d="M0 0 C6.52307692 -0.36923077 6.52307692 -0.36923077 8.9375 1.5 C9.288125 1.995 9.63875 2.49 10 3 C9.67 3.66 9.34 4.32 9 5 C4.545 4.01 4.545 4.01 0 3 C0 2.01 0 1.02 0 0 Z " fill="#396E84" transform="translate(163,119)"/>
<path d="M0 0 C2.31 0 4.62 0 7 0 C7 1.98 7 3.96 7 6 C4.36 6 1.72 6 -1 6 C-0.67 5.34 -0.34 4.68 0 4 C1.98 4.495 1.98 4.495 4 5 C4 3.68 4 2.36 4 1 C3.01 1 2.02 1 1 1 C0.67 1.66 0.34 2.32 0 3 C0 2.01 0 1.02 0 0 Z " fill="#1D1F1F" transform="translate(210,115)"/>
<path d="M0 0 C1.32 0.99 2.64 1.98 4 3 C3.67 4.32 3.34 5.64 3 7 C0.0625 6.625 0.0625 6.625 -3 6 C-3.33 5.34 -3.66 4.68 -4 4 C-3.01 3.67 -2.02 3.34 -1 3 C-0.67 2.01 -0.34 1.02 0 0 Z " fill="#C2AE1F" transform="translate(94,110)"/>
<path d="M0 0 C4.62 0 9.24 0 14 0 C10.3750203 1.81248985 8.62740416 2.31888915 4.75 2.625 C3.85796875 2.69976562 2.9659375 2.77453125 2.046875 2.8515625 C1.37140625 2.90054688 0.6959375 2.94953125 0 3 C0 2.01 0 1.02 0 0 Z " fill="#6ED2FB" transform="translate(192,112)"/>
<path d="M0 0 C-0.33 2.31 -0.66 4.62 -1 7 C-4 3.25 -4 3.25 -4 1 C-6.31 1 -8.62 1 -11 1 C-11 0.67 -11 0.34 -11 0 C-3.57142857 -1.28571429 -3.57142857 -1.28571429 0 0 Z " fill="#63BCE1" transform="translate(206,114)"/>
<path d="M0 0 C0.66 0 1.32 0 2 0 C2 0.99 2 1.98 2 3 C3.98 2.67 5.96 2.34 8 2 C7.67 3.32 7.34 4.64 7 6 C4.625 6.1875 4.625 6.1875 2 6 C0 3 0 3 0 0 Z " fill="#CAC30C" transform="translate(83,72)"/>
<path d="M0 0 C1.65 0 3.3 0 5 0 C5 1.32 5 2.64 5 4 C7.97 4 10.94 4 14 4 C14 4.33 14 4.66 14 5 C10.7 5 7.4 5 4 5 C3.67 4.34 3.34 3.68 3 3 C2.01 3 1.02 3 0 3 C0 2.01 0 1.02 0 0 Z " fill="#519DBD" transform="translate(145,107)"/>
<path d="M0 0 C2.64 0 5.28 0 8 0 C7.67 0.66 7.34 1.32 7 2 C5.35 1.67 3.7 1.34 2 1 C2 2.98 2 4.96 2 7 C1.01 7.33 0.02 7.66 -1 8 C-0.67 5.36 -0.34 2.72 0 0 Z " fill="#111512" transform="translate(143,106)"/>
<path d="M0 0 C0.66 0 1.32 0 2 0 C2.66 2.31 3.32 4.62 4 7 C3.01 6.67 2.02 6.34 1 6 C1 5.34 1 4.68 1 4 C0.34 4 -0.32 4 -1 4 C-1.33 4.66 -1.66 5.32 -2 6 C-2 2 -2 2 0 0 Z " fill="#33332E" transform="translate(85,59)"/>
<path d="M0 0 C0.33 0.66 0.66 1.32 1 2 C1.66 2 2.32 2 3 2 C2.67 4.64 2.34 7.28 2 10 C1.67 10 1.34 10 1 10 C1 8.02 1 6.04 1 4 C0.34 4 -0.32 4 -1 4 C-1.33 5.65 -1.66 7.3 -2 9 C-3 6 -3 6 -1.5625 2.8125 C-1.046875 1.884375 -0.53125 0.95625 0 0 Z " fill="#9B9B9B" transform="translate(78,62)"/>
<path d="M0 0 C0 1.65 0 3.3 0 5 C1.32 4.67 2.64 4.34 4 4 C4 4.66 4 5.32 4 6 C1.36 6 -1.28 6 -4 6 C-3.625 3.5625 -3.625 3.5625 -3 1 C-1 0 -1 0 0 0 Z " fill="#080D10" transform="translate(220,124)"/>
<path d="M0 0 C2.31 0 4.62 0 7 0 C6.67 1.98 6.34 3.96 6 6 C5.01 5.67 4.02 5.34 3 5 C3.33 3.68 3.66 2.36 4 1 C3.01 1 2.02 1 1 1 C0.67 1.66 0.34 2.32 0 3 C0 2.01 0 1.02 0 0 Z " fill="#090A0B" transform="translate(179,115)"/>
<path d="M0 0 C1.32 0.33 2.64 0.66 4 1 C3.01 1.495 3.01 1.495 2 2 C0.95191959 3.97522846 -0.0520411 5.97481509 -1 8 C-1.99 8 -2.98 8 -4 8 C-2.68 5.36 -1.36 2.72 0 0 Z " fill="#222116" transform="translate(185,93)"/>
<path d="M0 0 C2.95749791 3.46741134 5.07848152 6.86873527 7 11 C3.8255824 9.90537324 3.01085843 9.01822665 1.25 6.0625 C0 3 0 3 0 0 Z " fill="#1A1605" transform="translate(111,72)"/>
<path d="M0 0 C-0.2165625 0.7734375 -0.2165625 0.7734375 -0.4375 1.5625 C-1.15809901 4.68509571 -1.57266439 7.82550692 -2 11 C-2.33 11 -2.66 11 -3 11 C-3 8.36 -3 5.72 -3 3 C-3.99 2.67 -4.98 2.34 -6 2 C-2.25 0 -2.25 0 0 0 Z " fill="#2B2B28" transform="translate(92,77)"/>
<path d="M0 0 C0.66 0 1.32 0 2 0 C2 0.66 2 1.32 2 2 C3.65 2 5.3 2 7 2 C7 2.66 7 3.32 7 4 C4.36 4.33 1.72 4.66 -1 5 C-0.67 3.35 -0.34 1.7 0 0 Z " fill="#AFA93A" transform="translate(188,56)"/>
<path d="M0 0 C1.98 0 3.96 0 6 0 C6 1.98 6 3.96 6 6 C5.01 6 4.02 6 3 6 C3 4.35 3 2.7 3 1 C2.01 0.67 1.02 0.34 0 0 Z " fill="#1A1C1E" transform="translate(226,115)"/>
<path d="M0 0 C0 0.66 0 1.32 0 2 C-4.455 3.485 -4.455 3.485 -9 5 C-9 4.01 -9 3.02 -9 2 C-5.86501708 0.14223235 -3.62528568 -0.20140476 0 0 Z " fill="#2B2A25" transform="translate(115,52)"/>
<path d="M0 0 C0.99 0 1.98 0 3 0 C2.40138258 2.35171131 1.73075648 4.6859378 1 7 C0.01 7.495 0.01 7.495 -1 8 C-0.67 5.36 -0.34 2.72 0 0 Z " fill="#C6B31B" transform="translate(149,116)"/>
<path d="M0 0 C0.33 0.99 0.66 1.98 1 3 C-3.75 7.875 -3.75 7.875 -6 9 C-5.67 7.35 -5.34 5.7 -5 4 C-4.34 4 -3.68 4 -3 4 C-3 3.34 -3 2.68 -3 2 C-2.01 1.34 -1.02 0.68 0 0 Z " fill="#B9A81A" transform="translate(137,55)"/>
<path d="M0 0 C2 1 2 1 3 3 C0.66666667 5.33333333 -1.66666667 7.66666667 -4 10 C-3.43454163 6.04179141 -2.19097652 3.3340947 0 0 Z " fill="#2D2A06" transform="translate(137,49)"/>
<path d="M0 0 C3.375 -0.125 3.375 -0.125 7 0 C9 2 9 2 10 4 C8.68 4.99 7.36 5.98 6 7 C6 5.02 6 3.04 6 1 C4.02 1 2.04 1 0 1 C0 0.67 0 0.34 0 0 Z " fill="#5CB0D3" transform="translate(226,114)"/>
<path d="M0 0 C2.29013653 3.4352048 2.17842973 4.985331 2 9 C1.34 9 0.68 9 0 9 C-1.125 3.375 -1.125 3.375 0 0 Z " fill="#6DD0F8" transform="translate(207,114)"/>
<path d="M0 0 C1.2077558 3.62326739 0.54311128 4.64146369 -1 8 C-2.32 7.01 -3.64 6.02 -5 5 C-3.35 3.35 -1.7 1.7 0 0 Z " fill="#0A0A08" transform="translate(93,69)"/>
<path d="M0 0 C3.82946843 1.45255699 5.12050295 3.42895561 7 7 C4 7 4 7 2.61328125 5.6875 C1.40885417 4.125 0.20442708 2.5625 -1 1 C-0.67 0.67 -0.34 0.34 0 0 Z " fill="#201E16" transform="translate(188,42)"/>
<path d="M0 0 C1.32 0.66 2.64 1.32 4 2 C2.35 3.32 0.7 4.64 -1 6 C-1.625 4.125 -1.625 4.125 -2 2 C-1.34 1.34 -0.68 0.68 0 0 Z " fill="#999999" transform="translate(138,29)"/>
<path d="M0 0 C0.99 0 1.98 0 3 0 C2.67 1.98 2.34 3.96 2 6 C1.01 6 0.02 6 -1 6 C-0.67 4.02 -0.34 2.04 0 0 Z " fill="#0A0D0F" transform="translate(199,115)"/>
<path d="M0 0 C-0.99 1.485 -0.99 1.485 -2 3 C-4.625 3.1875 -4.625 3.1875 -7 3 C-7.33 2.01 -7.66 1.02 -8 0 C-4.71303767 -0.79953138 -3.28976808 -1.09658936 0 0 Z " fill="#534E08" transform="translate(150,89)"/>
<path d="M0 0 C1.0326802 2.78823655 1.04509293 3.8677274 0.0625 6.75 C-0.288125 7.4925 -0.63875 8.235 -1 9 C-1.66 8.67 -2.32 8.34 -3 8 C-2.45276317 4.62537285 -1.9451 2.91765 0 0 Z " fill="#E0DB8D" transform="translate(84,63)"/>
<path d="M0 0 C1.42944945 2.35438733 2.08661261 3.48032433 1.625 6.25 C1.41875 6.8275 1.2125 7.405 1 8 C-0.65 7.67 -2.3 7.34 -4 7 C-2.68 6.67 -1.36 6.34 0 6 C0 4.02 0 2.04 0 0 Z " fill="#2D290D" transform="translate(115,123)"/>
<path d="M0 0 C0.66 0 1.32 0 2 0 C1.39816251 2.02045442 0.72693904 4.02111039 0 6 C-0.99 6.495 -0.99 6.495 -2 7 C-2.99 6.01 -3.98 5.02 -5 4 C-4.0409375 3.8453125 -4.0409375 3.8453125 -3.0625 3.6875 C-2.381875 3.460625 -1.70125 3.23375 -1 3 C-0.67 2.01 -0.34 1.02 0 0 Z " fill="#DFD60F" transform="translate(183,93)"/>
<path d="M0 0 C-1.13719419 3.41158256 -2.04342944 4.11854601 -5 6 C-5.66 6 -6.32 6 -7 6 C-5.52522876 2.59668175 -4.14385429 0 0 0 Z " fill="#272723" transform="translate(145,36)"/>
</svg>
