<svg xmlns="http://www.w3.org/2000/svg" viewBox="0 0 256 256">
  <rect width="100%" height="100%" fill="white"></rect>
  <defs>
    <linearGradient id="a" x1="12.959%" x2="79.639%" y1="13.493%" y2="78.497%">
      <stop offset="0%" stop-color="#387EB8"></stop>
      <stop offset="100%" stop-color="#366994"></stop>
    </linearGradient>
    <linearGradient id="b" x1="19.128%" x2="90.742%" y1="20.579%" y2="88.429%">
      <stop offset="0%" stop-color="#FFE052"></stop>
      <stop offset="100%" stop-color="#FFC331"></stop>
    </linearGradient>
  </defs>
  <g fill="none">
    <path fill="url(#a)" d="M126.916.003C58.572.003 66.66 28.348 66.66 28.348l.081 29.435h61.994v8.831H50.572S.007 59.406.007 128.001c0 68.598 44.207 66.546 44.207 66.546h25.358v-35.586s-1.332-44.207 43.295-44.207h61.442s41.964.665 41.964-40.63V41.527s6.649-41.524-89.357-41.524z"></path>
    <path fill="url(#b)" d="M129.165 254.633c68.343 0 60.256-28.345 60.256-28.345l-.082-29.433h-61.993v-8.831h78.162s50.565 7.208 50.565-61.385c0-68.6-44.208-66.547-44.208-66.547H186.508v35.587s1.331 44.206-43.294 44.206H81.772s-41.963-.664-41.963 40.632v40.93s-6.648 41.516 89.356 41.516z"></path>
    <circle cx="99.3" cy="46.5" r="10.3" fill="#FFF"></circle>
    <circle cx="155.5" cy="208.5" r="10.3" fill="#FFF"></circle>
  </g>
</svg>
